<svg width="819" height="265" viewBox="0 0 819 265" fill="none" xmlns="http://www.w3.org/2000/svg">
<g clip-path="url(#clip0)">
<path d="M352.319 251.888V231.689H354.504V251.888H352.319Z" fill="#1E202C"/>
<path d="M363.083 251.888V231.689H365.129L377.323 247.877V231.689H379.452V251.888H377.71L365.212 235.325V251.888H363.083Z" fill="#1E202C"/>
<path d="M396.825 252.234C393.876 252.234 391.498 251.243 389.691 249.262C387.885 247.281 386.982 244.809 386.982 241.846V241.788C386.982 238.941 387.894 236.489 389.719 234.43C391.544 232.372 393.867 231.343 396.687 231.343C398.254 231.343 399.59 231.564 400.696 232.006C401.802 232.449 402.872 233.122 403.904 234.026L402.494 235.758C400.798 234.219 398.835 233.449 396.604 233.449C394.503 233.449 392.751 234.257 391.35 235.873C389.95 237.489 389.249 239.442 389.249 241.731V241.788C389.249 244.231 389.95 246.242 391.35 247.819C392.751 249.397 394.604 250.185 396.908 250.185C399.047 250.185 400.908 249.512 402.494 248.165V243.145H396.604V241.096H404.595V249.146C402.383 251.205 399.793 252.234 396.825 252.234Z" fill="#1E202C"/>
<path d="M412.433 251.888V231.689H426.424V233.767H414.617V240.663H425.179V242.741H414.617V249.81H426.562V251.888H412.433Z" fill="#1E202C"/>
<path d="M433.867 251.888V231.689H435.913L448.107 247.877V231.689H450.236V251.888H448.494L435.996 235.325V251.888H433.867Z" fill="#1E202C"/>
<path d="M458.816 251.888V231.689H461.001V251.888H458.816Z" fill="#1E202C"/>
<path d="M469.58 251.888V231.689H483.571V233.767H471.764V240.663H482.327V242.741H471.764V249.81H483.709V251.888H469.58Z" fill="#1E202C"/>
<path d="M493.199 241.99H499.144C500.618 241.99 501.817 241.615 502.738 240.865C503.66 240.115 504.121 239.105 504.121 237.835V237.778C504.139 236.527 503.706 235.556 502.821 234.863C501.936 234.171 500.72 233.815 499.171 233.795H493.199V241.99ZM491.014 251.888V231.689H499.337C501.715 231.689 503.549 232.362 504.84 233.709C505.835 234.748 506.333 236.075 506.333 237.691V237.749C506.333 239.365 505.854 240.673 504.895 241.673C503.936 242.673 502.664 243.327 501.079 243.635L507.024 251.888H504.342L498.729 244.039H493.199V251.888H491.014Z" fill="#1E202C"/>
<path d="M514.322 229.9L517.087 226.178L519.271 227.217L516.091 229.9H514.322ZM514.1 251.888V231.689H516.285V251.888H514.1Z" fill="#1E202C"/>
<path d="M528.597 244.501H537.418L533.021 234.199L528.597 244.501ZM523.205 251.888L532.026 231.545H534.072L542.892 251.888H540.542L538.275 246.55H527.74L525.445 251.888H523.205Z" fill="#1E202C"/>
<path d="M566.876 251.888V243.895L558.829 231.689H561.484L568.009 241.788L574.59 231.689H577.134L569.088 243.866V251.888H566.876Z" fill="#1E202C"/>
<path d="M594.724 251.888V231.689H596.936L603.987 242.712L611.038 231.689H613.25V251.888H611.066V235.527L604.015 246.348H603.904L596.853 235.556V251.888H594.724Z" fill="#1E202C"/>
<path d="M625.373 244.501H634.193L629.797 234.199L625.373 244.501ZM619.981 251.888L628.802 231.545H630.848L639.668 251.888H637.318L635.051 246.55H624.516L622.221 251.888H619.981Z" fill="#1E202C"/>
<path d="M646.396 251.888V231.689H648.442L660.636 247.877V231.689H662.765V251.888H661.023L648.525 235.325V251.888H646.396Z" fill="#1E202C"/>
<path d="M676.267 251.888V233.795H669.769V231.689H684.977V233.795H678.479V251.888H676.267Z" fill="#1E202C"/>
<path d="M691.992 251.888V231.689H705.983V233.767H694.176V240.663H704.739V242.741H694.176V249.81H706.121V251.888H691.992Z" fill="#1E202C"/>
<path d="M713.426 251.888V231.689H715.472L727.666 247.877V231.689H729.795V251.888H728.053L715.555 235.325V251.888H713.426Z" fill="#1E202C"/>
<path d="M747.03 252.234C744.247 252.234 741.933 251.234 740.09 249.233C738.246 247.232 737.325 244.77 737.325 241.846V241.788C737.325 238.903 738.256 236.441 740.117 234.401C741.979 232.362 744.311 231.343 747.113 231.343C748.754 231.343 750.155 231.612 751.316 232.151C752.477 232.689 753.592 233.488 754.662 234.546L753.169 236.219C751.307 234.373 749.279 233.449 747.085 233.449C744.965 233.449 743.187 234.248 741.749 235.844C740.311 237.441 739.592 239.403 739.592 241.731V241.788C739.592 244.135 740.311 246.117 741.749 247.733C743.187 249.348 744.965 250.147 747.085 250.128C748.339 250.128 749.445 249.887 750.403 249.406C751.362 248.925 752.339 248.194 753.334 247.213L754.772 248.685C753.666 249.858 752.514 250.743 751.316 251.339C750.118 251.936 748.689 252.234 747.03 252.234Z" fill="#1E202C"/>
<path d="M761.7 251.888V231.689H763.884V251.888H761.7Z" fill="#1E202C"/>
<path d="M781.506 250.128C783.681 250.128 785.487 249.329 786.925 247.733C788.363 246.136 789.082 244.174 789.082 241.846V241.788C789.082 239.461 788.363 237.489 786.925 235.873C785.487 234.257 783.662 233.449 781.45 233.449C779.275 233.449 777.469 234.248 776.031 235.844C774.593 237.441 773.874 239.403 773.874 241.731V241.788C773.874 244.116 774.593 246.088 776.031 247.704C777.469 249.32 779.293 250.128 781.506 250.128ZM788.556 249.175C786.695 251.214 784.326 252.234 781.45 252.234C778.575 252.234 776.215 251.214 774.372 249.175C772.528 247.136 771.607 244.693 771.607 241.846V241.788C771.607 238.903 772.537 236.441 774.399 234.401C776.261 232.362 778.63 231.343 781.506 231.343C784.381 231.343 786.741 232.362 788.584 234.401C790.427 236.441 791.349 238.884 791.349 241.731V241.788C791.349 244.674 790.418 247.136 788.556 249.175ZM780.593 229.611L783.358 225.889L785.543 226.928L782.363 229.611H780.593Z" fill="#1E202C"/>
<path d="M798.867 251.888V231.689H800.913L813.107 247.877V231.689H815.236V251.888H813.494L800.996 235.325V251.888H798.867Z" fill="#1E202C"/>
<path d="M219.092 202.168H249.695V146.326H306.133V202.168H336.737V63.0601H306.133V118.107H249.695V63.0601H219.092V202.168Z" fill="#FF5A23"/>
<path d="M219.092 202.168H249.695V146.326H306.133V202.168H336.737V63.0601H306.133V118.107H249.695V63.0601H219.092V202.168Z" fill="#1E202C"/>
<path d="M410.068 204.552C429.345 204.552 443.653 197.001 453.589 184.68L436.3 169.378C427.954 177.128 420.601 180.308 410.466 180.308C396.952 180.308 387.414 173.154 384.433 159.442H458.557C458.756 156.66 458.955 153.878 458.955 151.493C458.955 121.287 442.659 93.6638 407.087 93.6638C376.086 93.6638 354.425 118.703 354.425 149.108V149.506C354.425 182.096 378.074 204.552 410.068 204.552ZM384.035 140.563C386.42 126.851 394.568 117.908 407.087 117.908C419.806 117.908 427.755 127.05 429.543 140.563H384.035Z" fill="#FF5A23"/>
<path d="M410.068 204.552C429.345 204.552 443.653 197.001 453.589 184.68L436.3 169.378C427.954 177.128 420.601 180.308 410.466 180.308C396.952 180.308 387.414 173.154 384.433 159.442H458.557C458.756 156.66 458.955 153.878 458.955 151.493C458.955 121.287 442.659 93.6638 407.087 93.6638C376.086 93.6638 354.425 118.703 354.425 149.108V149.506C354.425 182.096 378.074 204.552 410.068 204.552ZM384.035 140.563C386.42 126.851 394.568 117.908 407.087 117.908C419.806 117.908 427.755 127.05 429.543 140.563H384.035Z" fill="#1E202C"/>
<path d="M524.439 204.552C545.703 204.552 557.626 196.405 567.96 185.077L550.274 167.192C542.921 174.147 535.965 178.519 525.83 178.519C509.336 178.519 498.804 165.404 498.804 149.108V148.711C498.804 133.011 509.535 119.697 524.638 119.697C535.369 119.697 542.126 124.267 548.882 131.422L567.364 111.549C557.428 100.42 544.908 93.6638 524.837 93.6638C492.246 93.6638 468.995 118.703 468.995 149.108V149.506C468.995 179.911 492.445 204.552 524.439 204.552Z" fill="#FF5A23"/>
<path d="M524.439 204.552C545.703 204.552 557.626 196.405 567.96 185.077L550.274 167.192C542.921 174.147 535.965 178.519 525.83 178.519C509.336 178.519 498.804 165.404 498.804 149.108V148.711C498.804 133.011 509.535 119.697 524.638 119.697C535.369 119.697 542.126 124.267 548.882 131.422L567.364 111.549C557.428 100.42 544.908 93.6638 524.837 93.6638C492.246 93.6638 468.995 118.703 468.995 149.108V149.506C468.995 179.911 492.445 204.552 524.439 204.552Z" fill="#1E202C"/>
<path d="M617.747 204.155C640.799 204.155 658.486 193.424 658.486 169.776V169.378C658.486 149.903 641.197 142.749 626.292 137.781C614.766 133.806 604.631 131.024 604.631 125.062V124.665C604.631 120.492 608.407 117.312 615.76 117.312C623.51 117.312 634.042 121.088 644.575 127.248L656.101 106.382C644.575 98.6319 629.869 94.0613 616.356 94.0613C594.894 94.0613 577.406 106.183 577.406 127.845V128.242C577.406 148.909 594.297 155.865 609.202 160.237C620.927 163.814 631.26 166 631.26 172.558V172.955C631.26 177.725 627.286 180.904 618.542 180.904C608.606 180.904 596.483 176.532 584.957 168.186L572.04 188.058C586.15 199.187 602.843 204.155 617.747 204.155Z" fill="#FF5A23"/>
<path d="M617.747 204.155C640.799 204.155 658.486 193.424 658.486 169.776V169.378C658.486 149.903 641.197 142.749 626.292 137.781C614.766 133.806 604.631 131.024 604.631 125.062V124.665C604.631 120.492 608.407 117.312 615.76 117.312C623.51 117.312 634.042 121.088 644.575 127.248L656.101 106.382C644.575 98.6319 629.869 94.0613 616.356 94.0613C594.894 94.0613 577.406 106.183 577.406 127.845V128.242C577.406 148.909 594.297 155.865 609.202 160.237C620.927 163.814 631.26 166 631.26 172.558V172.955C631.26 177.725 627.286 180.904 618.542 180.904C608.606 180.904 596.483 176.532 584.957 168.186L572.04 188.058C586.15 199.187 602.843 204.155 617.747 204.155Z" fill="#1E202C"/>
<path d="M723.309 204.552C742.585 204.552 756.893 197.001 766.83 184.68L749.541 169.378C741.194 177.128 733.841 180.308 723.706 180.308C710.193 180.308 700.654 173.154 697.673 159.442H771.798C771.997 156.66 772.195 153.878 772.195 151.493C772.195 121.287 755.9 93.6638 720.328 93.6638C689.327 93.6638 667.666 118.703 667.666 149.108V149.506C667.666 182.096 691.314 204.552 723.309 204.552ZM697.276 140.563C699.661 126.851 707.808 117.908 720.328 117.908C733.046 117.908 740.995 127.05 742.784 140.563H697.276Z" fill="#FF5A23"/>
<path d="M723.309 204.552C742.585 204.552 756.893 197.001 766.83 184.68L749.541 169.378C741.194 177.128 733.841 180.308 723.706 180.308C710.193 180.308 700.654 173.154 697.673 159.442H771.798C771.997 156.66 772.195 153.878 772.195 151.493C772.195 121.287 755.9 93.6638 720.328 93.6638C689.327 93.6638 667.666 118.703 667.666 149.108V149.506C667.666 182.096 691.314 204.552 723.309 204.552ZM697.276 140.563C699.661 126.851 707.808 117.908 720.328 117.908C733.046 117.908 740.995 127.05 742.784 140.563H697.276Z" fill="#1E202C"/>
<path d="M788.794 202.168H819V57.0984H788.794V202.168Z" fill="#FF5A23"/>
<path d="M788.794 202.168H819V57.0984H788.794V202.168Z" fill="#1E202C"/>
<path fill-rule="evenodd" clip-rule="evenodd" d="M136.9 136.135L120.514 108.597C120.064 106.407 118.892 104.577 116.997 103.107C115.336 101.677 113.436 100.85 111.295 100.624C109.616 100.277 107.972 100.324 106.365 100.766L47.8503 104.397C45.8174 104.424 44.0013 103.736 42.4023 102.335C40.7961 100.835 39.549 99.1119 38.6609 97.1667C37.8724 95.1154 37.4037 93.0443 37.2549 90.9532C37.1131 88.9618 37.2913 86.9505 37.7893 84.9193C38.3869 82.782 39.3789 80.9202 40.7654 79.334C42.1448 77.6482 43.8474 76.7424 45.8733 76.6167L107.29 72.8052C110.276 72.6199 112.714 71.5184 114.605 69.5008C116.596 67.377 117.492 64.9211 117.294 62.1331C117.095 59.3451 115.863 57.0713 113.595 55.3118C111.428 53.446 108.851 52.6058 105.866 52.7911L45.0888 56.5629C37.6321 57.1257 31.5895 59.501 26.961 63.6887C22.4321 67.7702 19.275 72.3167 17.4897 77.3281C15.8039 82.2333 15.1453 87.2747 15.5137 92.4525C15.8563 97.2663 17.1924 101.972 19.522 106.569C12.6011 107.283 6.94873 109.624 2.56497 113.59C-1.96394 117.671 -5.12105 122.218 -6.90636 127.229C-8.59213 132.134 -9.25078 137.176 -8.8823 142.354C-8.528 147.332 -7.11098 152.195 -4.63124 156.942C-2.15859 161.589 1.615 165.705 6.68954 169.291C11.757 172.777 18.9929 174.378 28.3973 174.094L78.9585 170.956L103.718 212.567C108.566 220.097 113.932 224.905 119.818 226.988C125.796 229.023 131.546 229.749 137.068 229.167C142.683 228.537 147.826 227.01 152.497 224.586C157.354 222.066 161.531 218.814 165.029 214.83C168.568 210.71 170.944 205.767 172.158 199.999C173.413 194.097 172.271 188.068 168.731 181.913L166.336 178.469C170.088 177.651 173.607 176.39 176.893 174.685C181.75 172.165 185.927 168.912 189.425 164.928C192.964 160.809 195.34 155.865 196.554 150.098C197.809 144.195 196.667 138.166 193.127 132.012L163.541 82.2909C162.088 79.8485 159.934 78.2833 157.08 77.5953C154.267 76.7717 151.553 77.0385 148.937 78.3956C146.322 79.7528 144.599 81.7884 143.769 84.5024C142.98 87.0807 143.313 89.5911 144.766 92.0336L174.663 142.278C175.649 143.935 175.759 145.762 174.991 147.759C174.316 149.707 173.18 151.496 171.582 153.124C170.025 154.617 168.312 155.848 166.444 156.818C164.483 157.835 162.365 158.592 160.092 159.086C157.861 159.445 155.634 159.402 153.413 158.956C153.139 158.892 152.873 158.819 152.616 158.737L136.9 136.135ZM85.9505 122.135C85.0049 122.448 83.986 122.639 82.894 122.706L21.4773 126.518C19.4514 126.644 17.7488 127.549 16.3694 129.235C14.9829 130.821 13.9909 132.683 13.3933 134.821C12.8953 136.852 12.7171 138.863 12.8588 140.854C13.0076 142.945 13.4763 145.017 14.2649 147.068C15.153 149.013 16.4001 150.736 18.0062 152.236C19.6053 153.637 21.4213 154.325 23.4543 154.299L81.9694 150.667C83.5765 150.225 85.2194 150.178 86.8979 150.525C89.0389 150.751 90.9399 151.578 92.6007 153.008C94.4959 154.479 95.6683 156.309 96.1179 158.498L124.206 205.703C125.286 207.312 126.889 208.363 129.017 208.857C131.238 209.303 133.465 209.346 135.696 208.987C137.969 208.493 140.087 207.737 142.048 206.719C143.916 205.749 145.629 204.518 147.186 203.026C148.784 201.397 149.92 199.609 150.595 197.66C151.363 195.664 151.253 193.837 150.267 192.179L136.829 172.823C133.758 170.307 130.853 166.921 128.114 162.665L118.136 145.897L116.921 144.146C116.773 143.898 116.673 143.626 116.612 143.336L103.355 121.055L85.9505 122.135Z" fill="#FF5A23"/>
<path fill-rule="evenodd" clip-rule="evenodd" d="M136.9 136.135L120.514 108.597C120.064 106.407 118.892 104.577 116.997 103.107C115.336 101.677 113.436 100.85 111.295 100.624C109.616 100.277 107.972 100.324 106.365 100.766L47.8503 104.397C45.8174 104.424 44.0013 103.736 42.4023 102.335C40.7961 100.835 39.549 99.1119 38.6609 97.1667C37.8724 95.1154 37.4037 93.0443 37.2549 90.9532C37.1131 88.9618 37.2913 86.9505 37.7893 84.9193C38.3869 82.782 39.3789 80.9202 40.7654 79.334C42.1448 77.6482 43.8474 76.7424 45.8733 76.6167L107.29 72.8052C110.276 72.6199 112.714 71.5184 114.605 69.5008C116.596 67.377 117.492 64.9211 117.294 62.1331C117.095 59.3451 115.863 57.0713 113.595 55.3118C111.428 53.446 108.851 52.6058 105.866 52.7911L45.0888 56.5629C37.6321 57.1257 31.5895 59.501 26.961 63.6887C22.4321 67.7702 19.275 72.3167 17.4897 77.3281C15.8039 82.2333 15.1453 87.2747 15.5137 92.4525C15.8563 97.2663 17.1924 101.972 19.522 106.569C12.6011 107.283 6.94873 109.624 2.56497 113.59C-1.96394 117.671 -5.12105 122.218 -6.90636 127.229C-8.59213 132.134 -9.25078 137.176 -8.8823 142.354C-8.528 147.332 -7.11098 152.195 -4.63124 156.942C-2.15859 161.589 1.615 165.705 6.68954 169.291C11.757 172.777 18.9929 174.378 28.3973 174.094L78.9585 170.956L103.718 212.567C108.566 220.097 113.932 224.905 119.818 226.988C125.796 229.023 131.546 229.749 137.068 229.167C142.683 228.537 147.826 227.01 152.497 224.586C157.354 222.066 161.531 218.814 165.029 214.83C168.568 210.71 170.944 205.767 172.158 199.999C173.413 194.097 172.271 188.068 168.731 181.913L166.336 178.469C170.088 177.651 173.607 176.39 176.893 174.685C181.75 172.165 185.927 168.912 189.425 164.928C192.964 160.809 195.34 155.865 196.554 150.098C197.809 144.195 196.667 138.166 193.127 132.012L163.541 82.2909C162.088 79.8485 159.934 78.2833 157.08 77.5953C154.267 76.7717 151.553 77.0385 148.937 78.3956C146.322 79.7528 144.599 81.7884 143.769 84.5024C142.98 87.0807 143.313 89.5911 144.766 92.0336L174.663 142.278C175.649 143.935 175.759 145.762 174.991 147.759C174.316 149.707 173.18 151.496 171.582 153.124C170.025 154.617 168.312 155.848 166.444 156.818C164.483 157.835 162.365 158.592 160.092 159.086C157.861 159.445 155.634 159.402 153.413 158.956C153.139 158.892 152.873 158.819 152.616 158.737L136.9 136.135ZM85.9505 122.135C85.0049 122.448 83.986 122.639 82.894 122.706L21.4773 126.518C19.4514 126.644 17.7488 127.549 16.3694 129.235C14.9829 130.821 13.9909 132.683 13.3933 134.821C12.8953 136.852 12.7171 138.863 12.8588 140.854C13.0076 142.945 13.4763 145.017 14.2649 147.068C15.153 149.013 16.4001 150.736 18.0062 152.236C19.6053 153.637 21.4213 154.325 23.4543 154.299L81.9694 150.667C83.5765 150.225 85.2194 150.178 86.8979 150.525C89.0389 150.751 90.9399 151.578 92.6007 153.008C94.4959 154.479 95.6683 156.309 96.1179 158.498L124.206 205.703C125.286 207.312 126.889 208.363 129.017 208.857C131.238 209.303 133.465 209.346 135.696 208.987C137.969 208.493 140.087 207.737 142.048 206.719C143.916 205.749 145.629 204.518 147.186 203.026C148.784 201.397 149.92 199.609 150.595 197.66C151.363 195.664 151.253 193.837 150.267 192.179L136.829 172.823C133.758 170.307 130.853 166.921 128.114 162.665L118.136 145.897L116.921 144.146C116.773 143.898 116.673 143.626 116.612 143.336L103.355 121.055L85.9505 122.135Z" fill="#FFCC00"/>
</g>
<defs>
<clipPath id="clip0">
<rect width="819" height="265" fill="white"/>
</clipPath>
</defs>
</svg>
