<svg width="160" height="53" viewBox="0 0 160 53" fill="none" xmlns="http://www.w3.org/2000/svg">
<g clip-path="url(#clip0)">
<path d="M84.1986 13.7585H90.1644L91.6414 39.3138H85.8368L85.2273 28.884L81.7317 39.3138H75.9271L72.2347 28.4667L71.5511 39.3105H65.7207L67.3331 13.7552H73.2989L78.8165 29.7515L84.1986 13.7585Z" fill="#FF9728"/>
<path d="M111.074 39.3138L110.019 36.2183H101.609L100.519 39.3138H94.002L103.102 13.8012H108.926L117.552 39.3203L111.074 39.3138ZM103.721 30.343H108.052L105.94 24.1554L103.721 30.343Z" fill="#FF9728"/>
<path d="M130.11 13.6829L126.604 22.4664L123.099 13.6829H116.853L123.48 30.2313L119.839 39.3006H126.082L136.353 13.6829H130.11Z" fill="#FF9728"/>
<path d="M147.462 13.7585C149.137 13.749 150.796 14.0925 152.335 14.7673C153.819 15.4152 155.171 16.3415 156.321 17.498C157.464 18.6591 158.378 20.0335 159.013 21.5463C159.665 23.1198 160 24.8103 160 26.5181C160 28.2258 159.665 29.9163 159.013 31.4898C158.379 33.004 157.465 34.3797 156.321 35.5414C155.172 36.6979 153.82 37.6233 152.335 38.2688C150.793 38.9345 149.136 39.2776 147.462 39.2776C145.788 39.2776 144.131 38.9345 142.589 38.2688C139.594 36.9751 137.21 34.5437 135.943 31.4898C135.292 29.9163 134.956 28.2258 134.956 26.5181C134.956 24.8103 135.292 23.1198 135.943 21.5463C137.212 18.4942 139.595 16.0636 142.589 14.7673C144.128 14.0925 145.787 13.749 147.462 13.7585ZM147.478 33.4022C148.381 33.4089 149.276 33.2266 150.106 32.8666C151.727 32.1633 153.016 30.8478 153.705 29.1962C154.055 28.3489 154.235 27.4389 154.235 26.5197C154.235 25.6005 154.055 24.6905 153.705 23.8432C153.016 22.1916 151.727 20.8761 150.106 20.1728C149.274 19.8171 148.381 19.6339 147.478 19.6339C146.576 19.6339 145.682 19.8171 144.85 20.1728C143.227 20.8747 141.935 22.1904 141.245 23.8432C140.895 24.6905 140.715 25.6005 140.715 26.5197C140.715 27.4389 140.895 28.3489 141.245 29.1962C141.586 30.0148 142.079 30.7589 142.696 31.3879C143.314 32.0147 144.042 32.5164 144.844 32.8666C145.676 33.2275 146.573 33.4098 147.478 33.4022Z" fill="#FF9728"/>
<path d="M26.7456 -0.000232952H26.0426C20.865 -0.0161211 15.8009 1.54564 11.5009 4.48444C7.20089 7.42325 3.86127 11.6049 1.91101 16.4922C-0.0392538 21.3796 -0.511096 26.7495 0.556089 31.9122C1.62327 37.0748 4.18075 41.7945 7.90002 45.465C8.73148 46.2932 9.62651 47.0525 10.5766 47.7356L10.6411 27.3196L15.2106 24.612V50.3578C15.9191 50.8188 16.6763 51.1969 17.4679 51.4849C18.831 51.9895 20.2334 52.3764 21.6601 52.6416C22.6211 52.8103 23.5897 52.9298 24.5624 52.9998V18.9995L26.4972 17.9447L28.4321 18.9995V52.9998C29.3867 52.9305 30.3371 52.811 31.2796 52.6416C32.7061 52.3755 34.1084 51.9886 35.4718 51.4849C36.2817 51.1967 37.0581 50.8187 37.7872 50.3578V24.612L42.3018 27.3196V47.7356C43.2461 47.0515 44.1357 46.2923 44.9623 45.465C48.6796 41.7874 51.233 37.0612 52.2942 31.8936C53.3554 26.726 52.876 21.3531 50.9176 16.4653C48.9592 11.5775 45.6112 7.39805 41.3039 4.46397C36.9965 1.52989 31.9266 -0.024762 26.7456 -0.000232952ZM34.8268 19.7158L34.8945 48.5505C33.7438 49.0614 32.5472 49.4575 31.3215 49.7335V17.6193L26.4843 14.7309L21.6472 17.6193V49.7466C20.4037 49.471 19.1889 49.0748 18.0193 48.5637L18.0838 19.7158L7.7936 25.9231V40.6345C4.56884 36.6552 2.99838 31.9135 2.99838 26.5408C2.9899 23.4354 3.58214 20.3587 4.74126 17.4866C5.90037 14.6145 7.60363 12.0034 9.75366 9.80242C11.9037 7.60149 14.4583 5.85393 17.2715 4.65965C20.0848 3.46536 23.1014 2.84776 26.149 2.84216H26.6617C32.8275 2.84912 38.7387 5.34828 43.0982 9.79123C47.4578 14.2342 49.9095 20.258 49.9155 26.5408C49.9155 31.9135 48.4257 36.6552 45.2009 40.6345V25.9231L34.8268 19.7158Z" fill="#FF9728"/>
</g>
<defs>
<clipPath id="clip0">
<rect width="160" height="53" fill="white"/>
</clipPath>
</defs>
</svg>
