<svg width="199" height="43" viewBox="0 0 199 43" fill="none" xmlns="http://www.w3.org/2000/svg">
<path d="M54.8159 35.9078H62.1713V22.4865H75.7358V35.9078H83.0912V2.47413H75.7358V15.7043H62.1713V2.47413H54.8159V35.9078Z" fill="#FF5A23"/>
<path d="M54.8159 35.9078H62.1713V22.4865H75.7358V35.9078H83.0912V2.47413H75.7358V15.7043H62.1713V2.47413H54.8159V35.9078Z" fill="white"/>
<path d="M100.716 36.4809C105.349 36.4809 108.788 34.6659 111.176 31.7047L107.021 28.027C105.014 29.8897 103.247 30.6539 100.811 30.6539C97.5636 30.6539 95.271 28.9345 94.5546 25.6389H112.37C112.418 24.9702 112.465 24.3015 112.465 23.7284C112.465 16.4685 108.549 9.82953 99.9995 9.82953C92.5485 9.82953 87.3424 15.8476 87.3424 23.1552V23.2507C87.3424 31.0838 93.0262 36.4809 100.716 36.4809ZM94.459 21.1014C95.0322 17.8058 96.9904 15.6565 99.9995 15.6565C103.056 15.6565 104.967 17.8536 105.397 21.1014H94.459Z" fill="#FF5A23"/>
<path d="M100.716 36.4809C105.349 36.4809 108.788 34.6659 111.176 31.7047L107.021 28.027C105.014 29.8897 103.247 30.6539 100.811 30.6539C97.5636 30.6539 95.271 28.9345 94.5546 25.6389H112.37C112.418 24.9702 112.465 24.3015 112.465 23.7284C112.465 16.4685 108.549 9.82953 99.9995 9.82953C92.5485 9.82953 87.3424 15.8476 87.3424 23.1552V23.2507C87.3424 31.0838 93.0262 36.4809 100.716 36.4809ZM94.459 21.1014C95.0322 17.8058 96.9904 15.6565 99.9995 15.6565C103.056 15.6565 104.967 17.8536 105.397 21.1014H94.459Z" fill="white"/>
<path d="M128.204 36.4809C133.315 36.4809 136.181 34.5226 138.664 31.8002L134.413 27.5016C132.646 29.1733 130.974 30.224 128.539 30.224C124.574 30.224 122.043 27.0717 122.043 23.1552V23.0597C122.043 19.2865 124.622 16.0864 128.252 16.0864C130.831 16.0864 132.455 17.1849 134.079 18.9044L138.521 14.1281C136.133 11.4534 133.124 9.82953 128.3 9.82953C120.467 9.82953 114.879 15.8476 114.879 23.1552V23.2507C114.879 30.5584 120.515 36.4809 128.204 36.4809Z" fill="#FF5A23"/>
<path d="M128.204 36.4809C133.315 36.4809 136.181 34.5226 138.664 31.8002L134.413 27.5016C132.646 29.1733 130.974 30.224 128.539 30.224C124.574 30.224 122.043 27.0717 122.043 23.1552V23.0597C122.043 19.2865 124.622 16.0864 128.252 16.0864C130.831 16.0864 132.455 17.1849 134.079 18.9044L138.521 14.1281C136.133 11.4534 133.124 9.82953 128.3 9.82953C120.467 9.82953 114.879 15.8476 114.879 23.1552V23.2507C114.879 30.5584 120.515 36.4809 128.204 36.4809Z" fill="white"/>
<path d="M150.63 36.3854C156.171 36.3854 160.421 33.8062 160.421 28.1225V28.027C160.421 23.3463 156.266 21.6268 152.684 20.4328C149.914 19.4775 147.478 18.8088 147.478 17.376V17.2804C147.478 16.2774 148.385 15.5132 150.153 15.5132C152.015 15.5132 154.547 16.4207 157.078 17.9014L159.848 12.8863C157.078 11.0236 153.544 9.92505 150.296 9.92505C145.137 9.92505 140.934 12.8386 140.934 18.0446V18.1402C140.934 23.1075 144.994 24.7791 148.576 25.8299C151.394 26.6896 153.878 27.215 153.878 28.7912V28.8867C153.878 30.033 152.923 30.7972 150.821 30.7972C148.433 30.7972 145.52 29.7464 142.749 27.7404L139.645 32.5166C143.036 35.1913 147.048 36.3854 150.63 36.3854Z" fill="#FF5A23"/>
<path d="M150.63 36.3854C156.171 36.3854 160.421 33.8062 160.421 28.1225V28.027C160.421 23.3463 156.266 21.6268 152.684 20.4328C149.914 19.4775 147.478 18.8088 147.478 17.376V17.2804C147.478 16.2774 148.385 15.5132 150.153 15.5132C152.015 15.5132 154.547 16.4207 157.078 17.9014L159.848 12.8863C157.078 11.0236 153.544 9.92505 150.296 9.92505C145.137 9.92505 140.934 12.8386 140.934 18.0446V18.1402C140.934 23.1075 144.994 24.7791 148.576 25.8299C151.394 26.6896 153.878 27.215 153.878 28.7912V28.8867C153.878 30.033 152.923 30.7972 150.821 30.7972C148.433 30.7972 145.52 29.7464 142.749 27.7404L139.645 32.5166C143.036 35.1913 147.048 36.3854 150.63 36.3854Z" fill="white"/>
<path d="M176.001 36.4809C180.634 36.4809 184.073 34.6659 186.461 31.7047L182.306 28.027C180.3 29.8897 178.533 30.6539 176.097 30.6539C172.849 30.6539 170.556 28.9345 169.84 25.6389H187.655C187.703 24.9702 187.751 24.3015 187.751 23.7284C187.751 16.4685 183.834 9.82953 175.285 9.82953C167.834 9.82953 162.628 15.8476 162.628 23.1552V23.2507C162.628 31.0838 168.312 36.4809 176.001 36.4809ZM169.744 21.1014C170.318 17.8058 172.276 15.6565 175.285 15.6565C178.342 15.6565 180.252 17.8536 180.682 21.1014H169.744Z" fill="#FF5A23"/>
<path d="M176.001 36.4809C180.634 36.4809 184.073 34.6659 186.461 31.7047L182.306 28.027C180.3 29.8897 178.533 30.6539 176.097 30.6539C172.849 30.6539 170.556 28.9345 169.84 25.6389H187.655C187.703 24.9702 187.751 24.3015 187.751 23.7284C187.751 16.4685 183.834 9.82953 175.285 9.82953C167.834 9.82953 162.628 15.8476 162.628 23.1552V23.2507C162.628 31.0838 168.312 36.4809 176.001 36.4809ZM169.744 21.1014C170.318 17.8058 172.276 15.6565 175.285 15.6565C178.342 15.6565 180.252 17.8536 180.682 21.1014H169.744Z" fill="white"/>
<path d="M191.74 35.9078H199V1.04126H191.74V35.9078Z" fill="#FF5A23"/>
<path d="M191.74 35.9078H199V1.04126H191.74V35.9078Z" fill="white"/>
<path fill-rule="evenodd" clip-rule="evenodd" d="M35.0617 20.0372L31.1234 13.4186C31.0153 12.8924 30.7335 12.4525 30.2781 12.099C29.879 11.7555 29.4222 11.5566 28.9077 11.5024C28.5041 11.4189 28.1091 11.4302 27.7227 11.5365L13.6592 12.4093C13.1705 12.4156 12.7341 12.2504 12.3498 11.9136C11.9637 11.553 11.664 11.1389 11.4505 10.6714C11.261 10.1784 11.1484 9.68063 11.1126 9.17806C11.0785 8.69943 11.1214 8.21603 11.2411 7.72785C11.3847 7.21416 11.6231 6.76669 11.9563 6.38545C12.2879 5.98028 12.6971 5.76258 13.184 5.73236L27.9451 4.81629C28.6627 4.77175 29.2487 4.50703 29.7033 4.02211C30.1818 3.51167 30.3971 2.92141 30.3495 2.25132C30.3018 1.58124 30.0055 1.03475 29.4606 0.611858C28.9396 0.163444 28.3203 -0.0384973 27.6028 0.00603434L12.9954 0.91257C11.2033 1.04783 9.75096 1.61871 8.63854 2.6252C7.55005 3.60617 6.79125 4.69888 6.36217 5.90334C5.957 7.08227 5.7987 8.29396 5.88726 9.5384C5.9696 10.6954 6.29071 11.8263 6.85062 12.9311C5.18722 13.1029 3.82872 13.6654 2.77511 14.6186C1.68661 15.5996 0.927821 16.6923 0.498733 17.8968C0.0935696 19.0757 -0.0647324 20.2874 0.0238278 21.5318C0.108982 22.7284 0.449554 23.8971 1.04554 25.038C1.63983 26.1549 2.54679 27.1442 3.76642 28.006C4.98435 28.8438 6.72346 29.2287 8.98373 29.1605L21.1358 28.4063L27.0866 38.4071C28.2517 40.2171 29.5415 41.3724 30.956 41.8732C32.3929 42.3623 33.775 42.5369 35.1021 42.397C36.4516 42.2455 37.6877 41.8784 38.8102 41.296C39.9776 40.6902 40.9816 39.9085 41.8222 38.951C42.6728 37.9609 43.2439 36.7728 43.5357 35.3866C43.8374 33.9679 43.5629 32.5189 42.7121 31.0397L42.1364 30.2118C43.0383 30.0153 43.8841 29.7122 44.6736 29.3025C45.8411 28.6967 46.8451 27.9151 47.6856 26.9575C48.5362 25.9674 49.1074 24.7793 49.3991 23.3932C49.7008 21.9744 49.4263 20.5255 48.5755 19.0462L41.4648 7.09613C41.1155 6.50911 40.5978 6.13292 39.9118 5.96758C39.2357 5.76962 38.5834 5.83373 37.9548 6.15992C37.3262 6.48611 36.9121 6.97536 36.7126 7.62765C36.5231 8.24733 36.603 8.85069 36.9523 9.43771L44.1378 21.5136C44.3749 21.912 44.4011 22.3511 44.2165 22.831C44.0544 23.2992 43.7813 23.7291 43.3972 24.1205C43.023 24.4792 42.6114 24.7751 42.1624 25.0081C41.691 25.2528 41.1821 25.4345 40.6358 25.5534C40.0994 25.6396 39.5644 25.6292 39.0305 25.5221C38.9645 25.5067 38.9006 25.4892 38.8388 25.4694L35.0617 20.0372ZM22.8163 16.6725C22.589 16.7477 22.3441 16.7934 22.0817 16.8097L7.32057 17.7258C6.83365 17.756 6.42443 17.9737 6.09291 18.3789C5.75968 18.7601 5.52125 19.2076 5.37763 19.7213C5.25793 20.2095 5.21511 20.6929 5.24917 21.1715C5.28493 21.6741 5.39758 22.1719 5.5871 22.6649C5.80055 23.1324 6.10029 23.5465 6.48632 23.9071C6.87064 24.2438 7.30711 24.409 7.79573 24.4027L21.8595 23.5299C22.2457 23.4237 22.6406 23.4124 23.044 23.4958C23.5586 23.55 24.0155 23.7489 24.4146 24.0925C24.8701 24.446 25.1519 24.8858 25.26 25.4121L32.0108 36.7573C32.2702 37.144 32.6557 37.3968 33.1671 37.5155C33.7009 37.6226 34.236 37.6331 34.7724 37.5468C35.3187 37.428 35.8275 37.2463 36.299 37.0016C36.748 36.7686 37.1596 36.4727 37.5337 36.1139C37.9179 35.7225 38.191 35.2927 38.3531 34.8245C38.5377 34.3446 38.5114 33.9054 38.2744 33.5071L35.0447 28.8549C34.3066 28.2502 33.6084 27.4364 32.95 26.4136L30.5519 22.3834L30.2598 21.9627C30.2243 21.903 30.2002 21.8377 30.1856 21.7679L26.9993 16.4129L22.8163 16.6725Z" fill="#FF5A23"/>
<path fill-rule="evenodd" clip-rule="evenodd" d="M35.0617 20.0372L31.1234 13.4186C31.0153 12.8924 30.7335 12.4525 30.2781 12.099C29.879 11.7555 29.4222 11.5566 28.9077 11.5024C28.5041 11.4189 28.1091 11.4302 27.7227 11.5365L13.6592 12.4093C13.1705 12.4156 12.7341 12.2504 12.3498 11.9136C11.9637 11.553 11.664 11.1389 11.4505 10.6714C11.261 10.1784 11.1484 9.68063 11.1126 9.17806C11.0785 8.69943 11.1214 8.21603 11.2411 7.72785C11.3847 7.21416 11.6231 6.76669 11.9563 6.38545C12.2879 5.98028 12.6971 5.76258 13.184 5.73236L27.9451 4.81629C28.6627 4.77175 29.2487 4.50703 29.7033 4.02211C30.1818 3.51167 30.3971 2.92141 30.3495 2.25132C30.3018 1.58124 30.0055 1.03475 29.4606 0.611858C28.9396 0.163444 28.3203 -0.0384973 27.6028 0.00603434L12.9954 0.91257C11.2033 1.04783 9.75096 1.61871 8.63854 2.6252C7.55005 3.60617 6.79125 4.69888 6.36217 5.90334C5.957 7.08227 5.7987 8.29396 5.88726 9.5384C5.9696 10.6954 6.29071 11.8263 6.85062 12.9311C5.18722 13.1029 3.82872 13.6654 2.77511 14.6186C1.68661 15.5996 0.927821 16.6923 0.498733 17.8968C0.0935696 19.0757 -0.0647324 20.2874 0.0238278 21.5318C0.108982 22.7284 0.449554 23.8971 1.04554 25.038C1.63983 26.1549 2.54679 27.1442 3.76642 28.006C4.98435 28.8438 6.72346 29.2287 8.98373 29.1605L21.1358 28.4063L27.0866 38.4071C28.2517 40.2171 29.5415 41.3724 30.956 41.8732C32.3929 42.3623 33.775 42.5369 35.1021 42.397C36.4516 42.2455 37.6877 41.8784 38.8102 41.296C39.9776 40.6902 40.9816 39.9085 41.8222 38.951C42.6728 37.9609 43.2439 36.7728 43.5357 35.3866C43.8374 33.9679 43.5629 32.5189 42.7121 31.0397L42.1364 30.2118C43.0383 30.0153 43.8841 29.7122 44.6736 29.3025C45.8411 28.6967 46.8451 27.9151 47.6856 26.9575C48.5362 25.9674 49.1074 24.7793 49.3991 23.3932C49.7008 21.9744 49.4263 20.5255 48.5755 19.0462L41.4648 7.09613C41.1155 6.50911 40.5978 6.13292 39.9118 5.96758C39.2357 5.76962 38.5834 5.83373 37.9548 6.15992C37.3262 6.48611 36.9121 6.97536 36.7126 7.62765C36.5231 8.24733 36.603 8.85069 36.9523 9.43771L44.1378 21.5136C44.3749 21.912 44.4011 22.3511 44.2165 22.831C44.0544 23.2992 43.7813 23.7291 43.3972 24.1205C43.023 24.4792 42.6114 24.7751 42.1624 25.0081C41.691 25.2528 41.1821 25.4345 40.6358 25.5534C40.0994 25.6396 39.5644 25.6292 39.0305 25.5221C38.9645 25.5067 38.9006 25.4892 38.8388 25.4694L35.0617 20.0372ZM22.8163 16.6725C22.589 16.7477 22.3441 16.7934 22.0817 16.8097L7.32057 17.7258C6.83365 17.756 6.42443 17.9737 6.09291 18.3789C5.75968 18.7601 5.52125 19.2076 5.37763 19.7213C5.25793 20.2095 5.21511 20.6929 5.24917 21.1715C5.28493 21.6741 5.39758 22.1719 5.5871 22.6649C5.80055 23.1324 6.10029 23.5465 6.48632 23.9071C6.87064 24.2438 7.30711 24.409 7.79573 24.4027L21.8595 23.5299C22.2457 23.4237 22.6406 23.4124 23.044 23.4958C23.5586 23.55 24.0155 23.7489 24.4146 24.0925C24.8701 24.446 25.1519 24.8858 25.26 25.4121L32.0108 36.7573C32.2702 37.144 32.6557 37.3968 33.1671 37.5155C33.7009 37.6226 34.236 37.6331 34.7724 37.5468C35.3187 37.428 35.8275 37.2463 36.299 37.0016C36.748 36.7686 37.1596 36.4727 37.5337 36.1139C37.9179 35.7225 38.191 35.2927 38.3531 34.8245C38.5377 34.3446 38.5114 33.9054 38.2744 33.5071L35.0447 28.8549C34.3066 28.2502 33.6084 27.4364 32.95 26.4136L30.5519 22.3834L30.2598 21.9627C30.2243 21.903 30.2002 21.8377 30.1856 21.7679L26.9993 16.4129L22.8163 16.6725Z" fill="#FFCC00"/>
</svg>
