<svg width="233" height="48" viewBox="0 0 233 48" fill="none" xmlns="http://www.w3.org/2000/svg">
<g clip-path="url(#clip0)">
<path d="M3.28186 14.7345C8.83669 3.09664 22.8753 -1.9481 34.6414 3.54617C37.8228 4.99466 40.4992 7.09248 42.6202 9.58988C40.3982 6.4931 37.3178 3.94576 33.5809 2.19758C21.8148 -3.24675 7.77622 1.74804 2.22139 13.4359C-1.81849 21.977 -0.202536 31.6669 5.60479 38.4099C0.706437 31.7668 -0.505527 22.7262 3.28186 14.7345Z" fill="white"/>
<path d="M42.6209 9.59009C47.5192 16.2332 48.7312 25.2737 44.9438 33.2654C39.389 44.9033 25.3504 49.8981 13.5842 44.4538C10.4028 43.0053 7.72641 40.9075 5.60547 38.4101C7.8779 41.4569 10.9078 44.0542 14.6447 45.7524C26.4613 51.2467 40.4999 46.2019 46.0043 34.5141C50.0441 26.023 48.4282 16.3331 42.6209 9.59009Z" fill="white"/>
<path d="M45.5502 6.29358L22.4219 24.2748L51.4585 47.0511L25.1993 24.4247L45.5502 6.29358Z" fill="white"/>
<path d="M51.307 47.2509L22.0684 24.2748L45.4491 6.14368L45.7521 6.54326L25.5528 24.4746L51.61 46.9012L51.307 47.2509ZM22.8763 24.2748L42.9242 40.0084L24.7953 24.4246L39.7428 11.1884L22.8763 24.2748Z" fill="white"/>
<path d="M65.0426 29.1698L69.032 36.2125H68.0725L64.1336 29.3696C63.7801 29.4196 63.3761 29.4196 62.9722 29.4196H57.1143V36.2624H56.2559V17.6318H63.2246C67.1635 17.6318 68.9815 19.2801 68.9815 23.226C69.032 26.4227 67.7695 28.5205 65.0426 29.1698ZM62.9722 28.6703C66.2546 28.6703 68.123 26.7723 68.123 23.276C68.123 19.6298 66.2546 18.431 63.2246 18.431H57.1648V28.6703H62.9722Z" fill="white"/>
<path d="M69.2334 36.3623H67.9709L64.0826 29.4694C63.7291 29.5194 63.3756 29.5194 62.9716 29.5194H57.2653V36.3623H56.1543V17.4819H63.2746C67.365 17.4819 69.1829 19.2301 69.1829 23.226C69.1829 26.5225 67.8699 28.5704 65.2945 29.2697L69.2334 36.3623ZM68.1224 36.1125H68.7789L64.84 29.1198L64.9915 29.0699C67.567 28.4205 68.8799 26.4726 68.8799 23.226C68.8799 19.38 67.2135 17.7317 63.2241 17.7317H56.3563V36.1125H56.9623V29.2697H62.9211C63.3251 29.2697 63.7291 29.2197 64.0826 29.2197H64.1836L68.1224 36.1125ZM62.9716 28.7702H57.0128V18.2811H63.2241C66.658 18.2811 68.2739 19.8794 68.2739 23.226C68.2739 26.8222 66.4055 28.7702 62.9716 28.7702ZM57.2653 28.5204H62.9716C66.2035 28.5204 67.9709 26.6724 67.9709 23.2759C67.9709 20.0293 66.5065 18.5808 63.1736 18.5808H57.2148V28.5204H57.2653Z" fill="white"/>
<path d="M72.5664 17.6318H73.4249V36.2624H72.5664V17.6318Z" fill="white"/>
<path d="M73.5758 36.3623H72.4648V17.4819H73.5758V36.3623ZM72.7173 36.1125H73.3233V17.7317H72.7173V36.1125Z" fill="white"/>
<path d="M91.9582 31.0678C91.9582 33.8649 90.6957 36.2125 86.1508 36.2125H78.7275V17.6318H85.9488C89.8372 17.6318 91.0492 19.38 91.0492 21.8774C91.0492 24.3249 89.7362 25.9232 88.2213 26.4726C90.4937 26.7224 91.9582 28.5205 91.9582 31.0678ZM85.9488 18.431H79.6365V26.2229H86.3023C88.4738 26.2229 90.1907 24.7244 90.1907 21.9773C90.1907 19.7297 89.0797 18.431 85.9488 18.431ZM91.0997 31.0179C91.0997 28.6204 89.6352 26.9222 87.3123 26.9222H79.6365V35.4133H86.1003C90.0897 35.4633 91.0997 33.3654 91.0997 31.0179Z" fill="white"/>
<path d="M86.1503 36.3623H78.626V17.4819H85.9988C89.5337 17.4819 91.2506 18.9304 91.2506 21.8274C91.2506 24.2749 89.9881 25.7233 88.7257 26.3727C90.7961 26.8722 92.1596 28.6203 92.1596 31.0678C92.1091 34.5641 90.0891 36.3623 86.1503 36.3623ZM78.8785 36.1125H86.1503C89.9376 36.1125 91.8566 34.4143 91.8566 31.0678C91.8566 28.6203 90.4426 26.8722 88.2712 26.5725L87.7662 26.5225L88.2712 26.3727C89.5841 25.9231 91.0486 24.4747 91.0486 21.9273C91.0486 19.1302 89.4831 17.8316 86.0493 17.8316H78.929V36.1125H78.8785ZM86.0998 35.5631H79.4844V26.8222H87.2612C89.6346 26.8222 91.2001 28.5204 91.2001 31.0178C91.2001 34.0147 89.4831 35.5631 86.0998 35.5631ZM79.7369 35.3134H86.0998C89.3822 35.3134 90.9476 33.9148 90.9476 31.0178C90.9476 28.6203 89.4832 27.0719 87.2612 27.0719H79.7369V35.3134ZM86.3017 26.3727H79.4844V18.2811H85.8978C88.8772 18.2811 90.2911 19.4299 90.2911 21.9273C90.2911 24.6245 88.7257 26.3727 86.3017 26.3727ZM79.7369 26.1229H86.3017C88.5742 26.1229 90.0891 24.4747 90.0891 21.9773C90.0891 19.6297 88.8267 18.5808 85.9483 18.5808H79.7874V26.1229H79.7369Z" fill="white"/>
<path d="M108.066 35.4633V36.2624H95.8457V17.6318H108.066V18.431H96.7547V26.3228H106.299V27.072H96.7547V35.4633H108.066Z" fill="white"/>
<path d="M108.167 36.3623H95.6943V17.4819H108.167V18.5308H96.8558V26.1729H106.4V27.1718H96.8558V35.3134H108.218V36.3623H108.167ZM95.9468 36.1125H107.915V35.5631H96.5528V26.9221H106.097V26.4226H96.5528V18.2811H107.864V17.7317H95.9468V36.1125Z" fill="white"/>
<path d="M112.107 17.6318H112.966V36.2624H112.107V17.6318Z" fill="white"/>
<path d="M113.117 36.3623H112.006V17.4819H113.117V36.3623ZM112.208 36.1125H112.814V17.7317H112.208V36.1125Z" fill="white"/>
<path d="M126.752 29.1698L130.741 36.2125H129.782L125.893 29.3197C125.54 29.3696 125.136 29.3696 124.732 29.3696H118.874V36.2125H118.016V17.6318H124.984C128.923 17.6318 130.741 19.2801 130.741 23.226C130.741 26.4227 129.479 28.5205 126.752 29.1698ZM124.732 28.6703C128.014 28.6703 129.883 26.7723 129.883 23.276C129.883 19.6298 128.014 18.431 124.984 18.431H118.925V28.6703H124.732Z" fill="white"/>
<path d="M130.943 36.3623H129.68L125.842 29.4694C125.489 29.5194 125.135 29.5194 124.731 29.5194H119.025V36.3623H117.914V17.4819H125.034C129.125 17.4819 130.943 19.2301 130.943 23.226C130.943 26.5225 129.63 28.5704 127.054 29.2697L130.943 36.3623ZM129.882 36.1125H130.539L126.6 29.1198L126.751 29.0699C129.327 28.4205 130.64 26.4726 130.64 23.226C130.64 19.38 128.973 17.7317 124.984 17.7317H118.116V36.1125H118.722V29.2697H124.731C125.135 29.2697 125.539 29.2197 125.893 29.2197H125.994L129.882 36.1125ZM124.731 28.7702H118.773V18.2811H124.984C128.418 18.2811 130.034 19.8794 130.034 23.226C129.983 26.8222 128.115 28.7702 124.731 28.7702ZM119.025 28.5204H124.731C127.963 28.5204 129.731 26.6724 129.731 23.2759C129.731 20.0293 128.266 18.5808 124.933 18.5808H118.975V28.5204H119.025Z" fill="white"/>
<path d="M133.468 28.92V24.8243C133.468 19.0303 137.053 17.2322 141.194 17.2322C145.436 17.2322 149.072 19.0303 149.072 24.8243V28.92C149.072 34.8139 145.436 36.562 141.194 36.562C137.003 36.612 133.468 34.8139 133.468 28.92ZM148.112 28.92V24.8243C148.112 20.2291 145.638 17.9814 141.194 17.9814C136.801 17.9814 134.377 20.2291 134.377 24.8243V28.92C134.377 33.5652 136.801 35.8128 141.194 35.8128C145.638 35.8128 148.112 33.5652 148.112 28.92Z" fill="white"/>
<path d="M141.144 36.7118C137.558 36.7118 133.316 35.3632 133.316 28.9199V24.8242C133.316 18.4309 137.609 17.0823 141.144 17.0823C144.78 17.0823 149.122 18.4309 149.122 24.8242V28.9199C149.173 34.0146 146.396 36.7118 141.144 36.7118ZM141.144 17.382C137.659 17.382 133.569 18.6806 133.569 24.8742V28.9699C133.569 33.9647 136.144 36.512 141.144 36.512C146.295 36.512 148.87 33.9647 148.87 28.9699V24.8742C148.92 18.6806 144.679 17.382 141.144 17.382ZM141.144 35.9127C136.599 35.9127 134.225 33.5152 134.225 28.9199V24.8242C134.225 20.2789 136.649 17.8814 141.144 17.8814C145.739 17.8814 148.213 20.2789 148.213 24.8242V28.9199C148.213 33.5152 145.79 35.9127 141.144 35.9127ZM141.144 18.1811C136.75 18.1811 134.478 20.4787 134.478 24.8742V28.9699C134.478 33.4652 136.75 35.7129 141.144 35.7129C145.638 35.7129 147.961 33.4652 147.961 28.9699V24.8742C147.961 20.4288 145.689 18.1811 141.144 18.1811Z" fill="white"/>
<path d="M172.705 27.022H171.039V30.4184C171.039 35.8627 167.251 36.612 163.666 36.612C160.182 36.612 157.202 35.3133 157.202 31.3674C157.202 28.8201 158.414 27.1219 160.889 26.6224C158.919 26.2228 157.606 24.4746 157.606 22.177C157.606 18.7306 160.283 17.2821 163.868 17.2821C166.696 17.2821 168.918 17.9314 170.786 20.5787L170.18 21.0782C168.766 18.9803 166.696 18.0813 163.918 18.0813C160.535 18.0813 158.515 19.5298 158.515 22.2769C158.515 24.6245 159.828 26.2727 162.757 26.2727H172.705V27.022ZM170.231 27.022H162.858C160.182 27.022 158.162 28.3706 158.162 31.3175C158.162 34.1645 160.081 35.8128 163.767 35.7628C167.605 35.7628 170.281 34.7139 170.281 30.3685V27.022H170.231Z" fill="white"/>
<path d="M163.665 36.7118C159.424 36.7118 157.101 34.8138 157.101 31.3674C157.101 28.87 158.262 27.2217 160.383 26.6223C158.616 26.0229 157.505 24.3747 157.505 22.1769C157.505 18.9803 159.828 17.1322 163.918 17.1322C166.342 17.1322 168.816 17.5318 170.937 20.4787L170.988 20.5786L170.18 21.2279L170.079 21.128C168.766 19.1301 166.796 18.2311 163.918 18.2311C160.534 18.2311 158.666 19.6795 158.666 22.3268C158.666 24.8242 160.13 26.2227 162.807 26.2227H172.806V27.2217H171.139V30.5183C171.139 36.0125 167.15 36.7118 163.665 36.7118ZM163.918 17.3819C160.03 17.3819 157.757 19.1301 157.757 22.1769C157.757 24.4246 159.02 26.1228 160.938 26.4725L161.544 26.5724L160.938 26.6723C158.616 27.1218 157.353 28.7201 157.353 31.3174C157.353 35.5131 160.787 36.4121 163.665 36.4121C167.251 36.4121 170.887 35.7128 170.887 30.3684V26.8221H172.553V26.3226H162.807C160.029 26.3226 158.414 24.8242 158.414 22.1769C158.414 19.3799 160.383 17.8315 163.918 17.8315C166.847 17.8315 168.816 18.7805 170.18 20.7285L170.584 20.4288C168.766 17.9314 166.594 17.3819 163.918 17.3819ZM163.615 35.9126C161.645 35.9126 160.131 35.4132 159.171 34.4641C158.363 33.665 157.959 32.6161 157.959 31.3174C157.959 28.5703 159.777 26.8721 162.807 26.8721H170.331V30.3185C170.331 35.2134 166.998 35.8627 163.716 35.8627C163.665 35.9126 163.665 35.9126 163.615 35.9126ZM162.807 27.1717C159.929 27.1717 158.212 28.7201 158.212 31.3674C158.212 32.6161 158.565 33.615 159.323 34.3643C160.231 35.2633 161.645 35.7128 163.564 35.7128C163.615 35.7128 163.615 35.7128 163.665 35.7128C168.21 35.7128 170.028 34.1645 170.028 30.4184V27.2217H162.807V27.1717Z" fill="white"/>
<path d="M198.004 17.6318V36.2624H197.146V19.43L189.521 34.6641H188.915L181.441 19.4799L181.491 36.2624H180.633V17.6318H181.542L189.268 33.4154L197.146 17.6318H198.004Z" fill="white"/>
<path d="M198.105 36.3623H196.994V19.9294L189.571 34.714H188.814L181.542 19.9793L181.592 36.3623H180.481V17.4819H181.592L181.643 17.5319L189.268 33.0657L197.045 17.4819H198.105V36.3623ZM197.247 36.1125H197.853V17.7317H197.196L189.268 33.6651L181.441 17.7317H180.734V36.1125H181.34L181.289 18.8805L188.965 34.4642H189.42L197.247 18.8305V36.1125Z" fill="white"/>
<path d="M217.497 24.8743V28.97C217.497 34.714 213.861 36.2624 209.568 36.2624H203.307V17.6318H209.568C213.861 17.6318 217.497 19.2801 217.497 24.8743ZM216.588 24.8743C216.588 20.5288 214.113 18.431 209.568 18.431H204.165V35.4133H209.568C214.164 35.4133 216.588 33.4154 216.588 28.9201V24.8743Z" fill="white"/>
<path d="M209.569 36.3623H203.155V17.4819H209.569C214.871 17.4819 217.648 20.0293 217.648 24.8742V28.97C217.648 33.9148 214.972 36.3623 209.569 36.3623ZM203.408 36.1125H209.569C214.82 36.1125 217.396 33.765 217.396 28.92V24.8243C217.396 20.0792 214.77 17.6817 209.569 17.6817H203.408V36.1125ZM209.569 35.5631H204.014V18.2811H209.569C214.265 18.2811 216.739 20.5787 216.739 24.8742V28.92C216.739 33.3654 214.366 35.5631 209.569 35.5631ZM204.266 35.3134H209.569C214.214 35.3134 216.487 33.2155 216.487 28.97V24.9242C216.487 20.7286 214.164 18.5808 209.569 18.5808H204.317V35.3134H204.266Z" fill="white"/>
<path d="M232.748 35.4633V36.2624H221.891V17.6318H222.749V35.4633H232.748Z" fill="white"/>
<path d="M232.899 36.3623H221.789V17.4819H222.9V35.3134H232.899V36.3623ZM222.042 36.1125H232.646V35.5631H222.648V17.7317H222.042V36.1125Z" fill="white"/>
<path d="M183.916 42.306V46.202H183.562V45.1031C183.057 46.0022 181.997 46.3518 180.987 46.3518C179.725 46.3518 179.018 45.8024 179.018 44.7035C179.018 43.4548 179.826 43.0553 181.139 43.0553H183.512V42.356C183.512 40.9075 182.502 40.5579 181.442 40.5579C180.583 40.5579 179.977 40.8076 179.371 41.5069L179.119 41.2571C179.674 40.5579 180.482 40.2582 181.442 40.2582C182.805 40.2082 183.916 40.6578 183.916 42.306ZM183.512 44.6037V43.305H181.139C180.179 43.305 179.371 43.5547 179.371 44.6536C179.371 45.5027 179.977 46.0022 181.038 46.0022C181.997 46.0521 183.209 45.7025 183.512 44.6037Z" fill="white"/>
<path d="M180.988 46.4517C179.675 46.4517 178.968 45.8523 178.968 44.7035C178.968 43.5547 179.675 42.9553 181.139 42.9553H183.462V42.306C183.462 41.1572 182.806 40.5578 181.493 40.5578C180.634 40.5578 180.079 40.8076 179.473 41.4569L179.422 41.5068L179.119 41.1572L179.17 41.1073C179.725 40.408 180.533 40.0583 181.543 40.0583C183.159 40.0583 184.018 40.8076 184.018 42.2061V46.152H183.563V45.203C182.957 46.152 181.846 46.4517 180.988 46.4517ZM181.139 43.1052C179.725 43.1052 179.119 43.6047 179.119 44.7035C179.119 45.7524 179.776 46.3018 181.038 46.3018C181.897 46.3018 183.058 46.0022 183.563 45.1031L183.664 44.9033V46.152H183.866V42.306C183.866 40.9075 183.109 40.2581 181.543 40.2581C180.584 40.2581 179.826 40.5578 179.271 41.2072L179.422 41.357C180.028 40.7077 180.634 40.4579 181.493 40.4579C182.907 40.4579 183.614 41.1073 183.614 42.306V43.0552H181.139V43.1052ZM181.038 46.102C179.978 46.102 179.321 45.5526 179.321 44.6536C179.321 43.4049 180.331 43.255 181.139 43.255H183.563V44.6036C183.26 45.7025 182.048 46.102 181.038 46.102ZM181.139 43.4049C179.978 43.4049 179.473 43.8044 179.473 44.7035C179.473 45.5526 180.028 46.0022 181.038 46.0022C181.998 46.0022 183.109 45.6525 183.462 44.6036V43.4049H181.139Z" fill="white"/>
<path d="M180.988 46.4517C179.675 46.4517 178.968 45.8523 178.968 44.7035C178.968 43.5547 179.675 42.9553 181.139 42.9553H183.462V42.306C183.462 41.1572 182.806 40.5578 181.493 40.5578C180.634 40.5578 180.079 40.8076 179.473 41.4569L179.422 41.5068L179.119 41.1572L179.17 41.1073C179.725 40.408 180.533 40.0583 181.543 40.0583C183.159 40.0583 184.018 40.8076 184.018 42.2061V46.152H183.563V45.203C182.957 46.152 181.846 46.4517 180.988 46.4517ZM181.139 43.1052C179.725 43.1052 179.119 43.6047 179.119 44.7035C179.119 45.7524 179.776 46.3018 181.038 46.3018C181.897 46.3018 183.058 46.0022 183.563 45.1031L183.664 44.9033V46.152H183.866V42.306C183.866 40.9075 183.109 40.2581 181.543 40.2581C180.584 40.2581 179.826 40.5578 179.271 41.2072L179.422 41.357C180.028 40.7077 180.634 40.4579 181.493 40.4579C182.907 40.4579 183.614 41.1073 183.614 42.306V43.0552H181.139V43.1052ZM181.038 46.102C179.978 46.102 179.321 45.5526 179.321 44.6536C179.321 43.4049 180.331 43.255 181.139 43.255H183.563V44.6036C183.26 45.7025 182.048 46.102 181.038 46.102ZM181.139 43.4049C179.978 43.4049 179.473 43.8044 179.473 44.7035C179.473 45.5526 180.028 46.0022 181.038 46.0022C181.998 46.0022 183.109 45.6525 183.462 44.6036V43.4049H181.139Z" fill="white"/>
<path d="M180.986 46.5016C179.623 46.5016 178.916 45.8523 178.916 44.7035C178.916 43.5047 179.623 42.9054 181.138 42.9054H183.41V42.3559C183.41 41.2071 182.804 40.6577 181.491 40.6577C180.683 40.6577 180.078 40.9074 179.522 41.5568L179.421 41.6567L179.017 41.2571L179.068 41.1572C179.623 40.4579 180.431 40.1083 181.491 40.1083C183.158 40.1083 184.016 40.8575 184.016 42.3559V46.3518H183.41V45.5526C182.855 46.2519 181.794 46.5016 180.986 46.5016ZM179.068 44.7035C179.068 45.8023 179.775 46.3518 181.037 46.3518C179.724 46.3518 179.068 45.7524 179.068 44.7035ZM181.138 43.1551C179.775 43.1551 179.169 43.6546 179.169 44.7035C179.169 45.7024 179.825 46.2519 180.986 46.2519C181.744 46.2519 182.703 46.0021 183.259 45.3528C182.703 45.9522 181.845 46.2019 181.037 46.2019C179.926 46.2019 179.27 45.6525 179.27 44.7035C179.27 43.4048 180.33 43.255 181.138 43.255H183.612V44.7035C183.612 44.7534 183.562 44.8034 183.562 44.8533L183.663 44.6535V46.102H183.764V42.3559C183.764 41.0073 183.006 40.358 181.491 40.358C180.582 40.358 179.825 40.6577 179.32 41.2571L179.371 41.307C179.977 40.7076 180.582 40.408 181.441 40.408C182.905 40.408 183.612 41.0573 183.612 42.3559V43.1551H181.138ZM183.562 46.2019H183.915V42.306V46.2019H183.562ZM181.037 46.0521C181.037 46.0521 181.087 46.0521 181.037 46.0521C181.087 46.0521 181.037 46.0521 181.037 46.0521ZM183.41 44.9532C182.956 45.7524 181.946 46.0521 181.087 46.0521C181.946 46.0521 182.956 45.7524 183.41 44.9532ZM181.138 43.4548C179.977 43.4548 179.522 43.8044 179.522 44.6535C179.522 45.4527 180.078 45.9022 181.037 45.9022C181.946 45.9022 183.057 45.5526 183.41 44.6036V43.4548H181.138ZM183.562 45.1031C183.511 45.203 183.461 45.3029 183.36 45.4028C183.41 45.3528 183.41 45.3528 183.461 45.3029L183.562 45.1031ZM181.138 43.3549C180.33 43.3549 179.421 43.5047 179.371 44.7035C179.421 43.7545 179.977 43.3549 181.138 43.3549ZM179.421 41.4569C180.027 40.8075 180.633 40.5079 181.491 40.5079C180.633 40.5578 180.027 40.8075 179.421 41.4569ZM179.169 41.2071L179.27 41.307L179.169 41.2071ZM181.491 40.2082C180.532 40.2082 179.775 40.5578 179.219 41.2071C179.775 40.5578 180.532 40.2082 181.491 40.2082Z" fill="white"/>
<path d="M185.178 45.1531L185.43 44.9034C185.986 45.6526 186.794 46.0522 187.703 46.0522C188.662 46.0522 189.723 45.7525 189.723 44.7535C189.723 44.0542 189.319 43.7046 188.46 43.5048L186.895 43.1552C185.935 42.9054 185.38 42.5059 185.38 41.7067C185.38 40.7077 186.44 40.2083 187.602 40.2083C188.763 40.2083 189.622 40.6078 190.127 41.457L189.874 41.6567C189.42 40.9075 188.561 40.5579 187.652 40.5579C186.743 40.5579 185.784 40.9075 185.784 41.7067C185.784 42.406 186.289 42.7057 187.046 42.8555L188.612 43.2051C189.622 43.4549 190.127 43.9044 190.127 44.7535C190.127 45.9523 189.016 46.3519 187.703 46.3519C186.592 46.3519 185.784 45.9523 185.178 45.1531Z" fill="white"/>
<path d="M187.703 46.4517C186.592 46.4517 185.734 46.0521 185.128 45.203L185.077 45.153L185.431 44.8533L185.481 44.9033C186.037 45.6525 186.794 46.0021 187.703 46.0021C188.309 46.0021 189.672 45.9022 189.672 44.7534C189.672 44.1041 189.319 43.7545 188.461 43.5547L186.895 43.2051C185.835 42.9553 185.33 42.4558 185.33 41.6567C185.33 40.7077 186.239 40.1083 187.653 40.1083C188.865 40.1083 189.723 40.5079 190.228 41.357L190.278 41.4069L189.925 41.7066L189.874 41.6567C189.42 40.9574 188.663 40.5578 187.703 40.5578C186.794 40.5578 185.885 40.9074 185.885 41.6567C185.885 42.256 186.239 42.5557 187.097 42.7555L188.663 43.1052C189.773 43.3549 190.228 43.8544 190.228 44.7534C190.177 45.8523 189.319 46.4517 187.703 46.4517ZM185.279 45.153C185.885 45.9522 186.693 46.3018 187.754 46.3018C188.612 46.3018 190.127 46.102 190.127 44.7534C190.127 43.9043 189.672 43.4548 188.663 43.255L187.097 42.9054C186.491 42.7555 185.835 42.5058 185.835 41.7066C185.835 40.8575 186.794 40.5079 187.804 40.5079C188.814 40.5079 189.622 40.9074 190.076 41.6067L190.228 41.4569C189.723 40.7077 188.915 40.3081 187.804 40.3081C186.794 40.3081 185.633 40.6577 185.633 41.7566C185.633 42.5058 186.087 42.9054 187.097 43.1551L188.663 43.5047C189.571 43.7045 189.925 44.1041 189.925 44.8034C189.925 45.6525 189.117 46.152 187.804 46.152C186.845 46.152 186.087 45.7524 185.481 45.0531L185.279 45.153Z" fill="white"/>
<path d="M187.703 46.4517C186.592 46.4517 185.734 46.0521 185.128 45.203L185.077 45.153L185.431 44.8533L185.481 44.9033C186.037 45.6525 186.794 46.0021 187.703 46.0021C188.309 46.0021 189.672 45.9022 189.672 44.7534C189.672 44.1041 189.319 43.7545 188.461 43.5547L186.895 43.2051C185.835 42.9553 185.33 42.4558 185.33 41.6567C185.33 40.7077 186.239 40.1083 187.653 40.1083C188.865 40.1083 189.723 40.5079 190.228 41.357L190.278 41.4069L189.925 41.7066L189.874 41.6567C189.42 40.9574 188.663 40.5578 187.703 40.5578C186.794 40.5578 185.885 40.9074 185.885 41.6567C185.885 42.256 186.239 42.5557 187.097 42.7555L188.663 43.1052C189.773 43.3549 190.228 43.8544 190.228 44.7534C190.177 45.8523 189.319 46.4517 187.703 46.4517ZM185.279 45.153C185.885 45.9522 186.693 46.3018 187.754 46.3018C188.612 46.3018 190.127 46.102 190.127 44.7534C190.127 43.9043 189.672 43.4548 188.663 43.255L187.097 42.9054C186.491 42.7555 185.835 42.5058 185.835 41.7066C185.835 40.8575 186.794 40.5079 187.804 40.5079C188.814 40.5079 189.622 40.9074 190.076 41.6067L190.228 41.4569C189.723 40.7077 188.915 40.3081 187.804 40.3081C186.794 40.3081 185.633 40.6577 185.633 41.7566C185.633 42.5058 186.087 42.9054 187.097 43.1551L188.663 43.5047C189.571 43.7045 189.925 44.1041 189.925 44.8034C189.925 45.6525 189.117 46.152 187.804 46.152C186.845 46.152 186.087 45.7524 185.481 45.0531L185.279 45.153Z" fill="white"/>
<path d="M187.703 46.5016C186.541 46.5016 185.683 46.1021 185.077 45.203L185.026 45.1031L185.43 44.7035L185.531 44.8034C186.036 45.5027 186.844 45.9023 187.703 45.9023C188.258 45.9023 189.622 45.8024 189.622 44.7535C189.622 44.1041 189.268 43.8045 188.46 43.6047L186.895 43.255C185.834 43.0053 185.279 42.5058 185.279 41.6567C185.279 40.6577 186.188 40.0583 187.652 40.0583C188.864 40.0583 189.773 40.5079 190.278 41.357L190.379 41.4569L189.925 41.8565L189.824 41.7566C189.42 41.0573 188.662 40.7077 187.703 40.7077C186.844 40.7077 185.935 41.0074 185.935 41.7566C185.935 42.306 186.289 42.6057 187.097 42.8055L188.662 43.1551C189.773 43.4049 190.278 43.9043 190.278 44.8534C190.278 45.8523 189.369 46.5016 187.703 46.5016ZM189.521 45.9522C189.016 46.3018 188.258 46.3518 187.753 46.3518C188.511 46.3518 189.117 46.202 189.521 45.9522ZM185.329 45.153C185.885 45.9023 186.693 46.2519 187.703 46.2519C188.561 46.2519 189.975 46.0521 189.975 44.7535C189.975 43.9543 189.571 43.5048 188.561 43.305L186.996 42.9553C186.39 42.8055 185.683 42.5558 185.683 41.6567C185.683 40.7576 186.693 40.358 187.703 40.358C188.713 40.358 189.521 40.7576 189.975 41.4069L190.026 41.357C189.571 40.6577 188.763 40.2581 187.703 40.2581C186.743 40.2581 185.582 40.6078 185.582 41.6067C185.582 42.306 186.036 42.7056 186.996 42.9553L188.561 43.305C189.47 43.5048 189.874 43.9543 189.874 44.7035C189.874 45.6026 189.066 46.1021 187.703 46.1021C186.743 46.1021 185.986 45.7524 185.38 45.0032L185.329 45.153ZM188.561 45.9522C188.258 46.0022 187.955 46.0521 187.753 46.0521C188.006 46.0521 188.309 46.0022 188.561 45.9522ZM185.228 45.203C185.279 45.3029 185.38 45.3528 185.43 45.4527C185.38 45.3528 185.279 45.3029 185.228 45.203ZM185.43 44.9033L185.481 44.9533C185.582 45.0531 185.632 45.153 185.733 45.2529C185.632 45.153 185.531 45.0532 185.43 44.9033ZM186.137 42.4059C186.39 42.6556 186.743 42.7555 187.046 42.8055L188.511 43.1052L187.046 42.8055C186.642 42.7555 186.339 42.6057 186.137 42.4059ZM187.703 40.5079C186.743 40.5079 185.834 40.8575 185.834 41.6567C185.784 40.8575 186.743 40.5079 187.703 40.5079ZM189.773 41.4069C189.824 41.4569 189.874 41.5568 189.925 41.6567L189.874 41.6067C189.874 41.5068 189.824 41.4569 189.773 41.4069ZM187.753 40.2082C188.864 40.2082 189.672 40.6078 190.177 41.4069C189.672 40.6078 188.864 40.2082 187.753 40.2082ZM187.703 40.2082C186.996 40.2082 186.44 40.358 186.087 40.6078C186.491 40.3081 187.097 40.2082 187.703 40.2082ZM187.703 40.2082C187.753 40.2082 187.753 40.2082 187.703 40.2082C187.753 40.2082 187.753 40.2082 187.703 40.2082Z" fill="white"/>
<path d="M191.54 43.8045V42.7556C191.54 40.8076 192.853 40.2083 194.317 40.2083C195.782 40.2083 197.095 40.8076 197.095 42.7556V43.8045C197.095 45.7525 195.782 46.3519 194.317 46.3519C192.853 46.3519 191.54 45.7525 191.54 43.8045ZM196.64 43.8045V42.7556C196.64 41.0074 195.378 40.5079 194.267 40.5079C193.156 40.5079 191.894 41.0074 191.894 42.7556V43.8045C191.894 45.5527 193.156 46.0022 194.267 46.0022C195.378 46.0522 196.64 45.5527 196.64 43.8045Z" fill="white"/>
<path d="M194.267 46.4518C193.207 46.4518 191.439 46.1021 191.439 43.8545V42.8056C191.439 40.508 193.207 40.1583 194.267 40.1583C195.328 40.1583 197.095 40.508 197.095 42.8056V43.8545C197.095 46.1021 195.328 46.4518 194.267 46.4518ZM194.267 40.2582C193.257 40.2582 191.591 40.5579 191.591 42.7556V43.8045C191.591 45.9523 193.257 46.3019 194.267 46.3019C195.479 46.3019 196.944 45.8524 196.944 43.8045V42.7556C196.994 40.7078 195.53 40.2582 194.267 40.2582ZM194.267 46.1021C193.51 46.1021 191.843 45.9023 191.843 43.8045V42.7556C191.843 40.6079 193.712 40.458 194.267 40.458C194.823 40.458 196.691 40.6079 196.691 42.7556V43.8045C196.742 45.8524 195.025 46.1021 194.267 46.1021ZM194.267 40.6079C193.56 40.6079 191.944 40.8076 191.944 42.7556V43.8045C191.944 45.7525 193.56 45.9523 194.267 45.9523C194.974 45.9523 196.59 45.7525 196.59 43.8045V42.7556C196.59 40.8076 194.974 40.6079 194.267 40.6079Z" fill="white"/>
<path d="M194.267 46.4518C193.207 46.4518 191.439 46.1021 191.439 43.8545V42.8056C191.439 40.508 193.207 40.1583 194.267 40.1583C195.328 40.1583 197.095 40.508 197.095 42.8056V43.8545C197.095 46.1021 195.328 46.4518 194.267 46.4518ZM194.267 40.2582C193.257 40.2582 191.591 40.5579 191.591 42.7556V43.8045C191.591 45.9523 193.257 46.3019 194.267 46.3019C195.479 46.3019 196.944 45.8524 196.944 43.8045V42.7556C196.994 40.7078 195.53 40.2582 194.267 40.2582ZM194.267 46.1021C193.51 46.1021 191.843 45.9023 191.843 43.8045V42.7556C191.843 40.6079 193.712 40.458 194.267 40.458C194.823 40.458 196.691 40.6079 196.691 42.7556V43.8045C196.742 45.8524 195.025 46.1021 194.267 46.1021ZM194.267 40.6079C193.56 40.6079 191.944 40.8076 191.944 42.7556V43.8045C191.944 45.7525 193.56 45.9523 194.267 45.9523C194.974 45.9523 196.59 45.7525 196.59 43.8045V42.7556C196.59 40.8076 194.974 40.6079 194.267 40.6079Z" fill="white"/>
<path d="M194.267 46.5016C193.207 46.5016 191.389 46.152 191.389 43.8044V42.7555C191.389 40.408 193.207 40.0583 194.267 40.0583C195.328 40.0583 197.146 40.408 197.146 42.7555V43.8044C197.196 46.152 195.378 46.5016 194.267 46.5016ZM191.54 43.8044C191.54 46.0022 193.257 46.3518 194.318 46.3518C193.257 46.3518 191.54 46.0521 191.54 43.8044ZM194.267 40.3081C193.308 40.3081 191.641 40.6078 191.641 42.7555V43.8044C191.641 45.9023 193.308 46.2519 194.267 46.2519C195.479 46.2519 196.893 45.8523 196.893 43.8044V42.7555C196.944 40.7576 195.479 40.3081 194.267 40.3081ZM197.045 42.7555V43.8044V42.7555ZM194.267 46.152C193.51 46.152 191.793 45.9023 191.793 43.8044V42.7555C191.793 40.5578 193.712 40.408 194.267 40.408C194.823 40.408 196.742 40.5578 196.742 42.7555V43.8044C196.792 45.9522 195.025 46.152 194.267 46.152ZM191.894 43.8044C191.894 45.8024 193.56 46.0022 194.267 46.0022C194.974 46.0022 196.641 45.8024 196.641 43.8044V42.7555V43.8044C196.641 45.8024 194.974 46.0022 194.267 46.0022C193.56 46.0022 191.894 45.8024 191.894 43.8044ZM194.267 40.6577C193.611 40.6577 192.045 40.8575 192.045 42.7555V43.8044C192.045 45.7025 193.611 45.9023 194.267 45.9023C194.924 45.9023 196.489 45.7025 196.489 43.8044V42.7555C196.54 40.8575 194.974 40.6577 194.267 40.6577Z" fill="white"/>
<path d="M201.085 46.3519C199.62 46.3519 198.408 45.7525 198.408 43.8045V42.7556C198.408 40.8076 199.671 40.2083 201.085 40.2083C202.095 40.2083 203.004 40.5079 203.458 41.457L203.155 41.6567C202.701 40.8076 201.842 40.5579 201.085 40.5579C199.923 40.5579 198.762 41.0574 198.762 42.7556V43.8045C198.762 45.5527 199.923 46.0022 201.085 46.0022C201.893 46.0022 202.701 45.7525 203.206 44.9034L203.509 45.1032C203.054 46.0522 202.145 46.3519 201.085 46.3519Z" fill="white"/>
<path d="M201.085 46.4518C199.823 46.4518 198.358 46.0022 198.358 43.8545V42.8056C198.358 40.6578 199.873 40.1583 201.136 40.1583C202.348 40.1583 203.156 40.5579 203.56 41.407V41.457L203.156 41.7067L203.105 41.6568C202.6 40.7577 201.742 40.6079 201.085 40.6079C200.075 40.6079 198.813 41.0074 198.813 42.7556V43.8045C198.813 45.6026 200.025 45.9523 201.085 45.9523C202.045 45.9523 202.752 45.6026 203.156 44.9034L203.206 44.8534L203.61 45.1032L203.56 45.1531C203.105 46.0022 202.297 46.4518 201.085 46.4518ZM201.136 40.2582C199.924 40.2582 198.51 40.7078 198.51 42.7556V43.8045C198.51 45.8524 199.924 46.3019 201.136 46.3019C202.247 46.3019 203.004 45.9523 203.509 45.1531L203.307 45.0532C202.853 45.7525 202.146 46.1021 201.136 46.1021C200.227 46.1021 198.762 45.8024 198.762 43.8045V42.7556C198.762 40.7577 200.277 40.458 201.136 40.458C201.792 40.458 202.701 40.6578 203.257 41.5069L203.459 41.3571C203.004 40.6578 202.247 40.2582 201.136 40.2582Z" fill="white"/>
<path d="M201.085 46.4518C199.823 46.4518 198.358 46.0022 198.358 43.8545V42.8056C198.358 40.6578 199.873 40.1583 201.136 40.1583C202.348 40.1583 203.156 40.5579 203.56 41.407V41.457L203.156 41.7067L203.105 41.6568C202.6 40.7577 201.742 40.6079 201.085 40.6079C200.075 40.6079 198.813 41.0074 198.813 42.7556V43.8045C198.813 45.6026 200.025 45.9523 201.085 45.9523C202.045 45.9523 202.752 45.6026 203.156 44.9034L203.206 44.8534L203.61 45.1032L203.56 45.1531C203.105 46.0022 202.297 46.4518 201.085 46.4518ZM201.136 40.2582C199.924 40.2582 198.51 40.7078 198.51 42.7556V43.8045C198.51 45.8524 199.924 46.3019 201.136 46.3019C202.247 46.3019 203.004 45.9523 203.509 45.1531L203.307 45.0532C202.853 45.7525 202.146 46.1021 201.136 46.1021C200.227 46.1021 198.762 45.8024 198.762 43.8045V42.7556C198.762 40.7577 200.277 40.458 201.136 40.458C201.792 40.458 202.701 40.6578 203.257 41.5069L203.459 41.3571C203.004 40.6578 202.247 40.2582 201.136 40.2582Z" fill="white"/>
<path d="M201.085 46.5016C199.822 46.5016 198.257 46.0521 198.257 43.8044V42.7555C198.257 40.5578 199.772 40.0583 201.085 40.0583C202.297 40.0583 203.105 40.4579 203.559 41.357L203.61 41.4569L203.105 41.8065L203.054 41.7066C202.6 40.8575 201.691 40.6577 201.085 40.6577C200.075 40.6577 198.913 41.0074 198.913 42.7555V43.8044C198.913 45.5526 200.125 45.9023 201.085 45.9023C202.044 45.9023 202.701 45.5526 203.105 44.8534L203.155 44.7535L203.66 45.1031L203.61 45.203C203.155 46.0521 202.297 46.5016 201.085 46.5016ZM198.408 43.8044C198.408 45.9023 199.873 46.3518 201.085 46.3518C199.873 46.3518 198.408 45.9023 198.408 43.8044ZM201.135 40.3081C199.974 40.3081 198.56 40.7077 198.56 42.7555V43.8044C198.56 45.8024 199.923 46.2519 201.135 46.2519C202.196 46.2519 202.953 45.9023 203.408 45.203L203.307 45.153C202.852 45.8523 202.095 46.202 201.135 46.202C200.226 46.202 198.711 45.9023 198.711 43.8544V42.8055C198.711 40.7576 200.226 40.4579 201.135 40.4579C201.792 40.4579 202.701 40.6577 203.256 41.5068L203.357 41.4569C202.903 40.6577 202.196 40.3081 201.135 40.3081ZM203.559 45.153C203.509 45.203 203.509 45.203 203.559 45.153C203.509 45.203 203.509 45.203 203.559 45.153ZM203.256 44.9533L203.458 45.1031L203.256 44.9533ZM198.812 42.7555V43.8044V42.7555ZM202.448 40.8575C202.751 41.0074 203.054 41.2571 203.256 41.6567L203.206 41.6067C203.004 41.2072 202.701 41.0074 202.448 40.8575ZM203.509 41.4069L203.357 41.5068L203.509 41.4069ZM203.256 41.0573C203.357 41.1572 203.408 41.2571 203.458 41.357C203.408 41.2571 203.357 41.1572 203.256 41.0573Z" fill="white"/>
<path d="M205.276 38.2602C205.276 38.0604 205.428 37.9105 205.63 37.9105C205.832 37.9105 205.983 38.0604 205.983 38.2602C205.983 38.4599 205.832 38.6098 205.63 38.6098C205.428 38.6098 205.276 38.4599 205.276 38.2602ZM205.428 40.358H205.832V46.2019H205.428V40.358Z" fill="white"/>
<path d="M205.883 46.2518H205.378V40.308H205.883V46.2518ZM205.53 46.152H205.782V40.4079H205.53V46.152ZM205.631 38.6598C205.378 38.6598 205.227 38.5099 205.227 38.2602C205.227 38.0104 205.378 37.8606 205.631 37.8606C205.883 37.8606 206.035 38.0104 206.035 38.2602C206.035 38.46 205.883 38.6598 205.631 38.6598ZM205.631 37.9605C205.429 37.9605 205.328 38.0604 205.328 38.2602C205.328 38.41 205.429 38.5599 205.631 38.5599C205.833 38.5599 205.934 38.46 205.934 38.2602C205.934 38.0604 205.833 37.9605 205.631 37.9605Z" fill="white"/>
<path d="M205.883 46.2518H205.378V40.308H205.883V46.2518ZM205.53 46.152H205.782V40.4079H205.53V46.152ZM205.631 38.6598C205.378 38.6598 205.227 38.5099 205.227 38.2602C205.227 38.0104 205.378 37.8606 205.631 37.8606C205.883 37.8606 206.035 38.0104 206.035 38.2602C206.035 38.46 205.883 38.6598 205.631 38.6598ZM205.631 37.9605C205.429 37.9605 205.328 38.0604 205.328 38.2602C205.328 38.41 205.429 38.5599 205.631 38.5599C205.833 38.5599 205.934 38.46 205.934 38.2602C205.934 38.0604 205.833 37.9605 205.631 37.9605Z" fill="white"/>
<path d="M205.933 46.3018H205.276V40.2581H205.933V46.3018ZM205.428 46.2019H205.832V40.358V46.2019H205.428ZM205.58 46.0521H205.731V40.5079H205.58V46.0521ZM205.63 38.7097C205.327 38.7097 205.125 38.5099 205.125 38.2602C205.125 37.9605 205.327 37.8107 205.63 37.8107C205.933 37.8107 206.135 38.0105 206.135 38.2602C206.085 38.5099 205.883 38.7097 205.63 38.7097ZM205.276 38.2602C205.276 38.46 205.428 38.6098 205.63 38.6098C205.832 38.6098 205.984 38.46 205.984 38.2602C205.984 38.46 205.832 38.6098 205.63 38.6098C205.428 38.5599 205.276 38.46 205.276 38.2602ZM205.63 38.0105C205.479 38.0105 205.378 38.0604 205.378 38.2103C205.378 38.3601 205.479 38.41 205.63 38.41C205.782 38.41 205.883 38.3102 205.883 38.2103C205.832 38.0604 205.731 38.0105 205.63 38.0105Z" fill="white"/>
<path d="M212.447 42.306V46.202H212.094V45.1031C211.589 46.0022 210.528 46.3518 209.518 46.3518C208.256 46.3518 207.549 45.8024 207.549 44.7035C207.549 43.4548 208.357 43.0553 209.67 43.0553H212.043V42.356C212.043 40.9075 211.033 40.5579 209.973 40.5579C209.114 40.5579 208.508 40.8076 207.902 41.5069L207.65 41.2571C208.205 40.5579 209.013 40.2582 209.973 40.2582C211.336 40.2082 212.447 40.6578 212.447 42.306ZM212.043 44.6037V43.305H209.67C208.71 43.305 207.902 43.5547 207.902 44.6536C207.902 45.5027 208.508 46.0022 209.569 46.0022C210.528 46.0521 211.69 45.7025 212.043 44.6037Z" fill="white"/>
<path d="M209.519 46.4517C208.206 46.4517 207.499 45.8523 207.499 44.7035C207.499 43.5547 208.206 42.9553 209.67 42.9553H211.993V42.306C211.993 41.1572 211.337 40.5578 210.024 40.5578C209.165 40.5578 208.61 40.8076 208.004 41.4569L207.954 41.5068L207.651 41.1572L207.701 41.1073C208.256 40.408 209.064 40.0583 210.074 40.0583C211.69 40.0583 212.549 40.8076 212.549 42.2061V46.152H212.094V45.203C211.438 46.152 210.377 46.4517 209.519 46.4517ZM209.67 43.1052C208.257 43.1052 207.651 43.6047 207.651 44.7035C207.651 45.7524 208.307 46.3018 209.569 46.3018C210.428 46.3018 211.589 46.0022 212.094 45.1031L212.195 44.9033V46.152H212.397V42.306C212.397 40.9075 211.64 40.2581 210.074 40.2581C209.115 40.2581 208.358 40.5578 207.802 41.2072L207.954 41.357C208.559 40.7077 209.165 40.4579 210.024 40.4579C211.438 40.4579 212.145 41.1073 212.145 42.306V43.0552H209.67V43.1052ZM209.569 46.102C208.509 46.102 207.853 45.5526 207.853 44.6536C207.853 43.4049 208.862 43.255 209.67 43.255H212.094V44.6036C211.741 45.7025 210.579 46.102 209.569 46.102ZM209.67 43.4049C208.509 43.4049 208.004 43.8044 208.004 44.7035C208.004 45.5526 208.559 46.0022 209.569 46.0022C210.529 46.0022 211.64 45.6525 211.993 44.6036V43.4049H209.67Z" fill="white"/>
<path d="M209.519 46.4517C208.206 46.4517 207.499 45.8523 207.499 44.7035C207.499 43.5547 208.206 42.9553 209.67 42.9553H211.993V42.306C211.993 41.1572 211.337 40.5578 210.024 40.5578C209.165 40.5578 208.61 40.8076 208.004 41.4569L207.954 41.5068L207.651 41.1572L207.701 41.1073C208.256 40.408 209.064 40.0583 210.074 40.0583C211.69 40.0583 212.549 40.8076 212.549 42.2061V46.152H212.094V45.203C211.438 46.152 210.377 46.4517 209.519 46.4517ZM209.67 43.1052C208.257 43.1052 207.651 43.6047 207.651 44.7035C207.651 45.7524 208.307 46.3018 209.569 46.3018C210.428 46.3018 211.589 46.0022 212.094 45.1031L212.195 44.9033V46.152H212.397V42.306C212.397 40.9075 211.64 40.2581 210.074 40.2581C209.115 40.2581 208.358 40.5578 207.802 41.2072L207.954 41.357C208.559 40.7077 209.165 40.4579 210.024 40.4579C211.438 40.4579 212.145 41.1073 212.145 42.306V43.0552H209.67V43.1052ZM209.569 46.102C208.509 46.102 207.853 45.5526 207.853 44.6536C207.853 43.4049 208.862 43.255 209.67 43.255H212.094V44.6036C211.741 45.7025 210.579 46.102 209.569 46.102ZM209.67 43.4049C208.509 43.4049 208.004 43.8044 208.004 44.7035C208.004 45.5526 208.559 46.0022 209.569 46.0022C210.529 46.0022 211.64 45.6525 211.993 44.6036V43.4049H209.67Z" fill="white"/>
<path d="M209.518 46.5016C208.154 46.5016 207.447 45.8523 207.447 44.7035C207.447 43.5047 208.154 42.9054 209.669 42.9054H211.942V42.3559C211.942 41.2071 211.336 40.6577 210.023 40.6577C209.215 40.6577 208.609 40.9074 208.053 41.5568L207.952 41.6567L207.548 41.2571L207.599 41.1572C208.154 40.4579 208.962 40.1083 210.023 40.1083C211.689 40.1083 212.548 40.8575 212.548 42.3559V46.3518H211.942V45.5526C211.336 46.2519 210.326 46.5016 209.518 46.5016ZM207.548 44.7035C207.548 45.8023 208.255 46.3518 209.518 46.3518C208.255 46.3518 207.548 45.7524 207.548 44.7035ZM209.669 43.1551C208.306 43.1551 207.7 43.6546 207.7 44.7035C207.7 45.7024 208.356 46.2519 209.518 46.2519C210.275 46.2519 211.235 46.0021 211.79 45.3528C211.235 45.9522 210.376 46.2019 209.568 46.2019C208.457 46.2019 207.801 45.6525 207.801 44.7035C207.801 43.4048 208.861 43.255 209.669 43.255H212.144V44.7035C212.144 44.7534 212.093 44.8034 212.093 44.8533L212.194 44.6535V46.102H212.295V42.3559C212.295 41.0073 211.538 40.358 210.023 40.358C209.114 40.358 208.356 40.6577 207.851 41.2571L207.902 41.307C208.508 40.7076 209.114 40.408 209.972 40.408C211.437 40.408 212.144 41.0573 212.144 42.3559V43.1551H209.669ZM212.093 46.2019H212.447V42.306V46.2019H212.093ZM211.891 44.9532C211.437 45.7524 210.427 46.0521 209.568 46.0521C210.427 46.0521 211.437 45.7524 211.891 44.9532ZM209.669 43.4548C208.508 43.4548 208.053 43.8044 208.053 44.6535C208.053 45.4527 208.609 45.9022 209.568 45.9022C210.477 45.9022 211.588 45.5526 211.942 44.6036V43.4548H209.669ZM212.093 45.1031C212.043 45.203 211.992 45.3029 211.891 45.4028C211.942 45.3528 211.942 45.3528 211.992 45.3029L212.093 45.1031ZM209.669 43.3549C208.861 43.3549 207.952 43.5047 207.902 44.7035C207.902 43.7545 208.457 43.3549 209.669 43.3549ZM207.902 41.4569C208.508 40.8075 209.114 40.5079 209.972 40.5079C209.114 40.5578 208.558 40.8075 207.902 41.4569ZM207.7 41.2071L207.801 41.307L207.7 41.2071ZM209.972 40.2082C209.013 40.2082 208.255 40.5578 207.7 41.2071C208.255 40.5578 209.013 40.2082 209.972 40.2082Z" fill="white"/>
<path d="M219.518 36.9116V46.2019H219.165V45.1031C218.66 46.0521 217.7 46.4017 216.741 46.4017C215.327 46.4017 214.014 45.8024 214.014 43.8544V42.8055C214.014 40.8575 215.327 40.2581 216.741 40.2581C217.7 40.2581 218.66 40.5578 219.114 41.4569V36.9616H219.518V36.9116ZM219.114 44.5037V42.0563C218.811 40.9075 217.65 40.5079 216.791 40.5079C215.68 40.5079 214.418 41.0074 214.418 42.7555V43.8044C214.418 45.5526 215.68 46.0022 216.791 46.0022C217.65 46.0521 218.71 45.6525 219.114 44.5037Z" fill="white"/>
<path d="M216.739 46.4517C215.729 46.4517 213.962 46.1021 213.962 43.8544V42.8055C213.962 40.5578 215.679 40.2082 216.739 40.2082C217.345 40.2082 218.456 40.358 219.062 41.2571V36.9116H219.567V46.3518H219.113V45.4028C218.456 46.2519 217.345 46.4517 216.739 46.4517ZM216.739 40.2581C215.729 40.2581 214.063 40.5578 214.063 42.7555V43.8044C214.063 45.9522 215.729 46.3018 216.689 46.3018C217.345 46.3018 218.507 46.152 219.062 45.0531L219.163 44.8534V46.152H219.365V36.9616H219.113V41.6567L219.012 41.4069C218.557 40.408 217.396 40.2581 216.739 40.2581ZM216.79 46.1021C216.032 46.1021 214.366 45.9023 214.366 43.8044V42.7555C214.366 40.7077 216.083 40.4579 216.79 40.4579C217.749 40.4579 218.86 40.8575 219.163 42.0063V44.4538C218.709 46.0022 217.244 46.1021 216.79 46.1021ZM216.79 40.6078C216.083 40.6078 214.467 40.8076 214.467 42.7555V43.8044C214.467 45.7524 216.083 45.9522 216.79 45.9522C217.194 45.9522 218.608 45.8523 219.062 44.4538V42.0563C218.759 41.0074 217.699 40.6078 216.79 40.6078Z" fill="white"/>
<path d="M216.739 46.4517C215.729 46.4517 213.962 46.1021 213.962 43.8544V42.8055C213.962 40.5578 215.679 40.2082 216.739 40.2082C217.345 40.2082 218.456 40.358 219.062 41.2571V36.9116H219.567V46.3518H219.113V45.4028C218.456 46.2519 217.345 46.4517 216.739 46.4517ZM216.739 40.2581C215.729 40.2581 214.063 40.5578 214.063 42.7555V43.8044C214.063 45.9522 215.729 46.3018 216.689 46.3018C217.345 46.3018 218.507 46.152 219.062 45.0531L219.163 44.8534V46.152H219.365V36.9616H219.113V41.6567L219.012 41.4069C218.557 40.408 217.396 40.2581 216.739 40.2581ZM216.79 46.1021C216.032 46.1021 214.366 45.9023 214.366 43.8044V42.7555C214.366 40.7077 216.083 40.4579 216.79 40.4579C217.749 40.4579 218.86 40.8575 219.163 42.0063V44.4538C218.709 46.0022 217.244 46.1021 216.79 46.1021ZM216.79 40.6078C216.083 40.6078 214.467 40.8076 214.467 42.7555V43.8044C214.467 45.7524 216.083 45.9522 216.79 45.9522C217.194 45.9522 218.608 45.8523 219.062 44.4538V42.0563C218.759 41.0074 217.699 40.6078 216.79 40.6078Z" fill="white"/>
<path d="M216.739 46.5016C215.679 46.5016 213.911 46.1519 213.911 43.8543V42.8054C213.911 40.4578 215.679 40.1082 216.739 40.1082C217.345 40.1082 218.355 40.2081 219.012 41.0073V36.8116H219.668V46.3517H219.062V45.5525C218.355 46.3517 217.345 46.5016 216.739 46.5016ZM214.012 43.8044C214.012 46.0021 215.729 46.3517 216.739 46.3517C215.729 46.3517 214.012 46.052 214.012 43.8044ZM216.739 40.308C215.78 40.308 214.164 40.6077 214.164 42.7555V43.8044C214.164 45.9022 215.78 46.2019 216.739 46.2019C217.345 46.2019 218.507 46.052 219.062 45.0031L219.314 44.5536V46.052H219.415V37.0114H219.264V41.9563L219.163 41.7066C219.213 41.8064 219.264 41.9063 219.264 42.0062V44.4537C218.759 45.9521 217.244 46.102 216.79 46.102C216.032 46.102 214.265 45.8522 214.265 43.7544V42.7055C214.265 40.5577 216.032 40.358 216.79 40.358C217.598 40.358 218.557 40.6576 219.062 41.4568L219.012 41.4069C218.507 40.4579 217.396 40.308 216.739 40.308ZM219.163 46.2019H219.516V36.9115V46.2019H219.163ZM214.416 43.8044C214.416 45.8023 216.083 46.0021 216.79 46.0021C216.083 46.052 214.416 45.8023 214.416 43.8044ZM219.112 44.5536C218.608 45.9022 217.244 46.052 216.79 46.052C217.244 46.052 218.608 45.9022 219.112 44.5536ZM216.79 40.6576C216.133 40.6576 214.517 40.8574 214.517 42.7555V43.8044C214.517 45.7024 216.083 45.9022 216.79 45.9022C217.194 45.9022 218.557 45.8023 219.012 44.4537V42.0562C218.709 41.0572 217.699 40.6576 216.79 40.6576ZM219.163 45.0531C219.012 45.3028 218.86 45.5026 218.709 45.6524C218.86 45.5525 218.961 45.4027 219.062 45.2529L219.163 45.0531ZM216.79 40.5577C217.699 40.5577 218.81 40.9573 219.112 42.0562C218.81 40.9573 217.749 40.5577 216.79 40.5577ZM219.012 41.2071C219.062 41.257 219.112 41.307 219.112 41.4069L219.012 41.2071ZM218.759 40.9074C218.86 41.0073 218.911 41.1072 219.012 41.2071C218.961 41.1072 218.86 41.0073 218.759 40.9074Z" fill="white"/>
<path d="M221.284 43.8045V42.7556C221.284 40.8076 222.597 40.2083 224.062 40.2083C225.526 40.2083 226.839 40.8076 226.839 42.7556V43.8045C226.839 45.7525 225.526 46.3519 224.062 46.3519C222.597 46.3519 221.284 45.7525 221.284 43.8045ZM226.385 43.8045V42.7556C226.385 41.0074 225.122 40.5079 224.011 40.5079C222.9 40.5079 221.638 41.0074 221.638 42.7556V43.8045C221.638 45.5527 222.9 46.0022 224.011 46.0022C225.122 46.0522 226.385 45.5527 226.385 43.8045Z" fill="white"/>
<path d="M224.012 46.4518C222.951 46.4518 221.184 46.1021 221.184 43.8545V42.8056C221.184 40.508 222.951 40.1583 224.012 40.1583C225.072 40.1583 226.839 40.508 226.839 42.8056V43.8545C226.839 46.1021 225.072 46.4518 224.012 46.4518ZM224.012 40.2582C223.002 40.2582 221.335 40.5579 221.335 42.7556V43.8045C221.335 45.9523 223.002 46.3019 224.012 46.3019C225.223 46.3019 226.688 45.8524 226.688 43.8045V42.7556C226.738 40.7078 225.274 40.2582 224.012 40.2582ZM224.012 46.1021C223.254 46.1021 221.588 45.9023 221.588 43.8045V42.7556C221.588 40.6079 223.456 40.458 224.012 40.458C224.567 40.458 226.435 40.6079 226.435 42.7556V43.8045C226.486 45.8524 224.769 46.1021 224.012 46.1021ZM224.012 40.6079C223.305 40.6079 221.689 40.8076 221.689 42.7556V43.8045C221.689 45.7525 223.305 45.9523 224.012 45.9523C224.719 45.9523 226.334 45.7525 226.334 43.8045V42.7556C226.334 40.8076 224.719 40.6079 224.012 40.6079Z" fill="white"/>
<path d="M224.012 46.4518C222.951 46.4518 221.184 46.1021 221.184 43.8545V42.8056C221.184 40.508 222.951 40.1583 224.012 40.1583C225.072 40.1583 226.839 40.508 226.839 42.8056V43.8545C226.839 46.1021 225.072 46.4518 224.012 46.4518ZM224.012 40.2582C223.002 40.2582 221.335 40.5579 221.335 42.7556V43.8045C221.335 45.9523 223.002 46.3019 224.012 46.3019C225.223 46.3019 226.688 45.8524 226.688 43.8045V42.7556C226.738 40.7078 225.274 40.2582 224.012 40.2582ZM224.012 46.1021C223.254 46.1021 221.588 45.9023 221.588 43.8045V42.7556C221.588 40.6079 223.456 40.458 224.012 40.458C224.567 40.458 226.435 40.6079 226.435 42.7556V43.8045C226.486 45.8524 224.769 46.1021 224.012 46.1021ZM224.012 40.6079C223.305 40.6079 221.689 40.8076 221.689 42.7556V43.8045C221.689 45.7525 223.305 45.9523 224.012 45.9523C224.719 45.9523 226.334 45.7525 226.334 43.8045V42.7556C226.334 40.8076 224.719 40.6079 224.012 40.6079Z" fill="white"/>
<path d="M224.011 46.5016C222.951 46.5016 221.133 46.152 221.133 43.8044V42.7555C221.133 40.408 222.951 40.0583 224.011 40.0583C225.072 40.0583 226.89 40.408 226.89 42.7555V43.8044C226.94 46.152 225.122 46.5016 224.011 46.5016ZM221.284 43.8044C221.284 46.0022 223.001 46.3518 224.062 46.3518C223.001 46.3518 221.284 46.0521 221.284 43.8044ZM224.011 40.3081C223.052 40.3081 221.385 40.6078 221.385 42.7555V43.8044C221.385 45.9023 223.052 46.2519 224.011 46.2519C225.223 46.2519 226.637 45.8523 226.637 43.8044V42.7555C226.688 40.7576 225.223 40.3081 224.011 40.3081ZM226.789 42.7555V43.8044V42.7555ZM224.011 46.152C223.254 46.152 221.537 45.9023 221.537 43.8044V42.7555C221.537 40.5578 223.456 40.408 224.011 40.408C224.567 40.408 226.486 40.5578 226.486 42.7555V43.8044C226.536 45.9522 224.769 46.152 224.011 46.152ZM221.638 43.8044C221.638 45.8024 223.304 46.0022 224.011 46.0022C224.718 46.0022 226.385 45.8024 226.385 43.8044V42.7555V43.8044C226.385 45.8024 224.718 46.0022 224.011 46.0022C223.304 46.0022 221.638 45.8024 221.638 43.8044ZM224.011 40.6577C223.355 40.6577 221.789 40.8575 221.789 42.7555V43.8044C221.789 45.7025 223.355 45.9023 224.011 45.9023C224.668 45.9023 226.233 45.7025 226.233 43.8044V42.7555C226.284 40.8575 224.718 40.6577 224.011 40.6577Z" fill="white"/>
<path d="M227.849 45.1531L228.101 44.9034C228.657 45.6526 229.465 46.0522 230.374 46.0522C231.333 46.0522 232.393 45.7525 232.393 44.7535C232.393 44.0542 231.989 43.7046 231.131 43.5048L229.566 43.1552C228.606 42.9054 228.051 42.5059 228.051 41.7067C228.051 40.7077 229.111 40.2083 230.273 40.2083C231.434 40.2083 232.292 40.6078 232.797 41.457L232.545 41.6567C232.09 40.9075 231.232 40.5579 230.323 40.5579C229.414 40.5579 228.455 40.9075 228.455 41.7067C228.455 42.406 228.96 42.7057 229.717 42.8555L231.283 43.2051C232.292 43.4549 232.797 43.9044 232.797 44.7535C232.797 45.9523 231.686 46.3519 230.374 46.3519C229.263 46.3519 228.404 45.9523 227.849 45.1531Z" fill="white"/>
<path d="M230.374 46.4517C229.263 46.4517 228.405 46.0521 227.799 45.203L227.748 45.153L228.102 44.8533L228.152 44.9033C228.708 45.6525 229.465 46.0021 230.374 46.0021C230.98 46.0021 232.343 45.9022 232.343 44.7534C232.343 44.1041 231.99 43.7545 231.131 43.5547L229.566 43.2051C228.506 42.9553 228.001 42.4558 228.001 41.6567C228.001 40.7077 228.91 40.1083 230.323 40.1083C231.535 40.1083 232.394 40.5079 232.899 41.357L232.949 41.4069L232.596 41.7066L232.545 41.6567C232.091 40.9574 231.333 40.5578 230.374 40.5578C229.465 40.5578 228.556 40.9074 228.556 41.6567C228.556 42.256 228.91 42.5557 229.768 42.7555L231.333 43.1052C232.444 43.3549 232.899 43.8544 232.899 44.7534C232.848 45.8523 231.939 46.4517 230.374 46.4517ZM227.9 45.153C228.506 45.9522 229.314 46.3018 230.374 46.3018C231.232 46.3018 232.747 46.102 232.747 44.7534C232.747 43.9043 232.293 43.4548 231.283 43.255L229.718 42.9054C229.112 42.7555 228.455 42.5058 228.455 41.7066C228.455 40.8575 229.415 40.5079 230.424 40.5079C231.434 40.5079 232.242 40.9074 232.697 41.6067L232.848 41.4569C232.343 40.7077 231.535 40.3081 230.424 40.3081C229.415 40.3081 228.253 40.6577 228.253 41.7566C228.253 42.5058 228.708 42.9054 229.718 43.1551L231.283 43.5047C232.192 43.7045 232.545 44.1041 232.545 44.8034C232.545 45.6525 231.737 46.152 230.424 46.152C229.465 46.152 228.708 45.7524 228.102 45.0531L227.9 45.153Z" fill="white"/>
<path d="M230.374 46.4517C229.263 46.4517 228.405 46.0521 227.799 45.203L227.748 45.153L228.102 44.8533L228.152 44.9033C228.708 45.6525 229.465 46.0021 230.374 46.0021C230.98 46.0021 232.343 45.9022 232.343 44.7534C232.343 44.1041 231.99 43.7545 231.131 43.5547L229.566 43.2051C228.506 42.9553 228.001 42.4558 228.001 41.6567C228.001 40.7077 228.91 40.1083 230.323 40.1083C231.535 40.1083 232.394 40.5079 232.899 41.357L232.949 41.4069L232.596 41.7066L232.545 41.6567C232.091 40.9574 231.333 40.5578 230.374 40.5578C229.465 40.5578 228.556 40.9074 228.556 41.6567C228.556 42.256 228.91 42.5557 229.768 42.7555L231.333 43.1052C232.444 43.3549 232.899 43.8544 232.899 44.7534C232.848 45.8523 231.939 46.4517 230.374 46.4517ZM227.9 45.153C228.506 45.9522 229.314 46.3018 230.374 46.3018C231.232 46.3018 232.747 46.102 232.747 44.7534C232.747 43.9043 232.293 43.4548 231.283 43.255L229.718 42.9054C229.112 42.7555 228.455 42.5058 228.455 41.7066C228.455 40.8575 229.415 40.5079 230.424 40.5079C231.434 40.5079 232.242 40.9074 232.697 41.6067L232.848 41.4569C232.343 40.7077 231.535 40.3081 230.424 40.3081C229.415 40.3081 228.253 40.6577 228.253 41.7566C228.253 42.5058 228.708 42.9054 229.718 43.1551L231.283 43.5047C232.192 43.7045 232.545 44.1041 232.545 44.8034C232.545 45.6525 231.737 46.152 230.424 46.152C229.465 46.152 228.708 45.7524 228.102 45.0531L227.9 45.153Z" fill="white"/>
<path d="M230.374 46.5016C229.212 46.5016 228.354 46.1021 227.748 45.203L227.697 45.1031L228.101 44.7035L228.202 44.8034C228.707 45.5027 229.515 45.9023 230.374 45.9023C230.929 45.9023 232.293 45.8024 232.293 44.7535C232.293 44.1041 231.939 43.8045 231.131 43.6047L229.566 43.255C228.505 43.0053 227.95 42.5058 227.95 41.6567C227.95 40.6577 228.859 40.0583 230.323 40.0583C231.535 40.0583 232.444 40.5079 232.949 41.357L233 41.4569L232.545 41.8565L232.444 41.7566C232.04 41.0573 231.283 40.7077 230.323 40.7077C229.465 40.7077 228.556 41.0074 228.556 41.7566C228.556 42.306 228.909 42.6057 229.717 42.8055L231.283 43.1551C232.394 43.4049 232.899 43.9043 232.899 44.8534C232.899 45.8523 231.99 46.5016 230.374 46.5016ZM232.141 45.9522C231.636 46.3018 230.879 46.3518 230.374 46.3518C231.131 46.3518 231.737 46.202 232.141 45.9522ZM228 45.153C228.556 45.9023 229.364 46.2519 230.374 46.2519C231.232 46.2519 232.646 46.0521 232.646 44.7535C232.646 43.9543 232.242 43.5048 231.232 43.305L229.667 42.9553C229.061 42.8055 228.354 42.5558 228.354 41.6567C228.354 40.7576 229.364 40.358 230.374 40.358C231.384 40.358 232.192 40.7576 232.646 41.4069L232.697 41.357C232.242 40.6577 231.434 40.2581 230.323 40.2581C229.364 40.2581 228.202 40.6078 228.202 41.6067C228.202 42.306 228.657 42.7056 229.616 42.9553L231.182 43.305C232.091 43.5048 232.495 43.9543 232.495 44.7035C232.495 45.6026 231.687 46.1021 230.323 46.1021C229.364 46.1021 228.606 45.7524 228 45.0032V45.153ZM231.182 45.9522C230.879 46.0022 230.576 46.0521 230.374 46.0521C230.677 46.0521 230.929 46.0022 231.182 45.9522ZM230.323 46.0521C230.323 46.0521 230.374 46.0521 230.323 46.0521C230.374 46.0521 230.374 46.0521 230.323 46.0521ZM227.899 45.203C227.95 45.3029 228.051 45.3528 228.101 45.4527C228 45.3528 227.95 45.3029 227.899 45.203ZM228.051 44.9033L228.101 44.9533C228.202 45.0531 228.253 45.153 228.354 45.2529C228.253 45.153 228.152 45.0532 228.051 44.9033ZM228.758 42.4059C229.01 42.6556 229.364 42.7555 229.717 42.8554L231.182 43.1551L229.717 42.8554C229.263 42.7555 228.96 42.6057 228.758 42.4059ZM230.323 40.5079C229.364 40.5079 228.455 40.8575 228.455 41.6567C228.455 40.8575 229.414 40.5079 230.323 40.5079ZM232.394 41.4069C232.444 41.4569 232.495 41.5568 232.545 41.6567L232.495 41.6067C232.495 41.5068 232.444 41.4569 232.394 41.4069ZM230.374 40.2082C231.485 40.2082 232.293 40.6078 232.798 41.4069C232.343 40.6078 231.535 40.2082 230.374 40.2082ZM230.323 40.2082C229.616 40.2082 229.061 40.358 228.707 40.6078C229.111 40.3081 229.768 40.2082 230.323 40.2082Z" fill="white"/>
<path d="M56.9623 11.4381V11.8377C56.9623 13.5859 58.0733 14.0354 59.1842 14.0354C60.0932 14.0354 60.9012 13.7857 61.3557 13.1364L61.6081 13.3362C61.1537 14.0354 60.2447 14.3851 59.1337 14.3851C57.7198 14.3851 56.5078 13.7857 56.5078 11.8377V10.6889C56.5078 8.7909 57.7703 8.19153 59.1337 8.19153C60.4972 8.19153 61.6586 8.7909 61.6586 10.6889V11.4381H56.9623ZM56.9623 10.6889V11.1385H61.3557V10.6889C61.3557 8.9907 60.1942 8.54116 59.1842 8.54116C58.1238 8.49122 56.9623 8.9907 56.9623 10.6889Z" fill="white"/>
<path d="M59.1842 14.385C58.1743 14.385 56.5078 14.0354 56.5078 11.7877V10.6389C56.5078 8.99062 57.4673 8.09155 59.1842 8.09155C60.1437 8.09155 61.7596 8.44119 61.7596 10.6389V11.488H57.0128V11.7877C57.0128 13.6358 58.3762 13.9355 59.1842 13.9355C60.1942 13.9355 60.9012 13.6358 61.3052 13.0364L61.3557 12.9865L61.7091 13.2861L61.6586 13.3361C61.2547 14.0354 60.3962 14.385 59.1842 14.385ZM59.1842 8.2414C58.2248 8.2414 56.6088 8.54108 56.6088 10.6888V11.8377C56.6088 13.8855 57.9723 14.2851 59.1842 14.2851C59.9417 14.2851 61.0022 14.1353 61.5576 13.3361L61.4061 13.1862C60.9517 13.7856 60.1942 14.0853 59.2347 14.0853C58.3763 14.0853 56.9623 13.7856 56.9623 11.8377V11.3881H61.7091V10.6888C61.6586 8.69093 60.3457 8.2414 59.1842 8.2414ZM61.4061 11.1883H56.9118V10.6888C56.9118 8.69093 58.5277 8.49114 59.1842 8.49114C59.8407 8.49114 61.4061 8.69093 61.4061 10.6888V11.1883ZM57.0128 11.0385H61.2547V10.6389C61.2547 8.74088 59.7902 8.54108 59.1337 8.54108C58.4772 8.54108 56.9623 8.74088 56.9623 10.6389V11.0385H57.0128Z" fill="white"/>
<path d="M59.1842 14.385C58.1743 14.385 56.5078 14.0354 56.5078 11.7877V10.6389C56.5078 8.99062 57.4673 8.09155 59.1842 8.09155C60.1437 8.09155 61.7596 8.44119 61.7596 10.6389V11.488H57.0128V11.7877C57.0128 13.6358 58.3762 13.9355 59.1842 13.9355C60.1942 13.9355 60.9012 13.6358 61.3052 13.0364L61.3557 12.9865L61.7091 13.2861L61.6586 13.3361C61.2547 14.0354 60.3962 14.385 59.1842 14.385ZM59.1842 8.2414C58.2248 8.2414 56.6088 8.54108 56.6088 10.6888V11.8377C56.6088 13.8855 57.9723 14.2851 59.1842 14.2851C59.9417 14.2851 61.0022 14.1353 61.5576 13.3361L61.4061 13.1862C60.9517 13.7856 60.1942 14.0853 59.2347 14.0853C58.3763 14.0853 56.9623 13.7856 56.9623 11.8377V11.3881H61.7091V10.6888C61.6586 8.69093 60.3457 8.2414 59.1842 8.2414ZM61.4061 11.1883H56.9118V10.6888C56.9118 8.69093 58.5277 8.49114 59.1842 8.49114C59.8407 8.49114 61.4061 8.69093 61.4061 10.6888V11.1883ZM57.0128 11.0385H61.2547V10.6389C61.2547 8.74088 59.7902 8.54108 59.1337 8.54108C58.4772 8.54108 56.9623 8.74088 56.9623 10.6389V11.0385H57.0128Z" fill="white"/>
<path d="M59.1839 14.4849C58.174 14.4849 56.457 14.1353 56.457 11.8377V10.6889C56.457 9.04058 57.467 8.04163 59.1839 8.04163C60.1939 8.04163 61.8604 8.39126 61.8604 10.6889V11.538H57.1135V11.7877C57.1135 13.5859 58.4265 13.8855 59.2344 13.8855C60.1939 13.8855 60.9009 13.5859 61.3049 13.0364L61.4059 12.9365L61.8604 13.2862L61.8099 13.3861C61.3049 14.0853 60.3959 14.4849 59.1839 14.4849ZM60.7494 14.0354C60.2444 14.2851 59.6889 14.3351 59.1839 14.3351C59.8404 14.3351 60.3454 14.2352 60.7494 14.0354ZM59.1839 8.29137C58.275 8.29137 56.7095 8.59105 56.7095 10.6889V11.8377C56.7095 13.8356 58.073 14.2352 59.1839 14.2352C59.9414 14.2352 60.9009 14.0853 61.4564 13.3361L61.4059 13.2862C60.9514 13.8855 60.1939 14.1353 59.1839 14.1353C58.3255 14.1353 56.8105 13.8356 56.8105 11.7877V11.2882H61.5574V10.6889C61.6079 8.7409 60.2949 8.29137 59.1839 8.29137ZM61.2544 13.2862C60.9514 13.6358 60.4969 13.8855 59.8909 13.9854C60.4464 13.8855 60.9009 13.6358 61.2544 13.2862ZM61.4059 13.0864L61.6584 13.2862L61.4059 13.0864C61.3554 13.0864 61.3554 13.1363 61.4059 13.0864ZM56.962 11.4381V11.8377V11.4381H61.7089V10.6889V11.4381H56.962ZM59.1839 8.19147C58.982 8.19147 58.8305 8.19147 58.679 8.24142C58.881 8.19147 59.0324 8.19147 59.1839 8.19147ZM61.5069 11.2383H56.861V10.6389C56.861 8.59105 58.477 8.34131 59.1839 8.34131C59.8909 8.34131 61.4564 8.54111 61.4564 10.6389V11.2383H61.5069ZM56.962 11.1384H61.3554V10.6889V11.1384H56.962ZM57.1135 10.9886H61.2544V10.6389C61.2544 8.79084 59.8404 8.59105 59.2344 8.59105C58.6285 8.59105 57.164 8.79084 57.164 10.6389V10.9886H57.1135Z" fill="white"/>
<path d="M62.7197 13.1364L62.9722 12.8866C63.5277 13.6359 64.3357 14.0354 65.2447 14.0354C66.2041 14.0354 67.2646 13.7358 67.2646 12.7368C67.2646 12.0375 66.8606 11.6879 66.0021 11.4881L64.4367 11.1385C63.4772 10.8887 62.9217 10.4891 62.9217 9.68997C62.9217 8.69101 63.9822 8.19153 65.1437 8.19153C66.3051 8.19153 67.1636 8.59111 67.6686 9.44023L67.4161 9.64002C66.9616 8.8908 66.1031 8.54116 65.1942 8.54116C64.2852 8.54116 63.3257 8.8908 63.3257 9.68997C63.3257 10.3892 63.8307 10.6889 64.5882 10.8388L66.1536 11.1884C67.1636 11.4381 67.6686 11.8877 67.6686 12.7368C67.6686 13.9355 66.5576 14.3351 65.2447 14.3351C64.1842 14.3351 63.3257 13.9355 62.7197 13.1364Z" fill="white"/>
<path d="M65.2959 14.385C64.1849 14.385 63.3264 13.9854 62.7204 13.1363L62.6699 13.0864L63.0234 12.7867L63.0739 12.8366C63.6294 13.5858 64.3869 13.9355 65.2959 13.9355C65.9018 13.9355 67.2653 13.8356 67.2653 12.6868C67.2653 12.0375 66.9118 11.6878 66.0533 11.488L64.4879 11.1384C63.4274 10.8887 62.9224 10.3892 62.9224 9.59001C62.9224 8.641 63.8314 8.04163 65.2454 8.04163C66.4573 8.04163 67.3158 8.44121 67.8208 9.29033L67.8713 9.34027L67.5178 9.63996L67.4673 9.59001C67.0128 8.89074 66.2553 8.49116 65.2959 8.49116C64.3869 8.49116 63.4779 8.84079 63.4779 9.59001C63.4779 10.1894 63.8314 10.4891 64.6899 10.6889L66.2553 11.0385C67.3663 11.2882 67.8208 11.7877 67.8208 12.6868C67.7703 13.7856 66.8613 14.385 65.2959 14.385ZM62.8214 13.1363C63.4274 13.9355 64.2354 14.2851 65.2959 14.2851C66.1543 14.2851 67.6693 14.0853 67.6693 12.7367C67.6693 11.8876 67.2148 11.4381 66.2048 11.2383L64.6394 10.8887C64.0334 10.7388 63.3769 10.4891 63.3769 9.68991C63.3769 8.84079 64.3364 8.49116 65.3463 8.49116C66.3563 8.49116 67.1643 8.89074 67.6188 9.59001L67.7703 9.44017C67.2653 8.69095 66.4573 8.29137 65.3463 8.29137C64.3364 8.29137 63.1749 8.641 63.1749 9.73986C63.1749 10.4891 63.6294 10.8887 64.6394 11.1384L66.2048 11.488C67.1138 11.6878 67.4673 12.0874 67.4673 12.7867C67.4673 13.6358 66.6593 14.1353 65.3463 14.1353C64.3869 14.1353 63.6294 13.7357 63.0234 13.0364L62.8214 13.1363Z" fill="white"/>
<path d="M65.2959 14.385C64.1849 14.385 63.3264 13.9854 62.7204 13.1363L62.6699 13.0864L63.0234 12.7867L63.0739 12.8366C63.6294 13.5858 64.3869 13.9355 65.2959 13.9355C65.9018 13.9355 67.2653 13.8356 67.2653 12.6868C67.2653 12.0375 66.9118 11.6878 66.0533 11.488L64.4879 11.1384C63.4274 10.8887 62.9224 10.3892 62.9224 9.59001C62.9224 8.641 63.8314 8.04163 65.2454 8.04163C66.4573 8.04163 67.3158 8.44121 67.8208 9.29033L67.8713 9.34027L67.5178 9.63996L67.4673 9.59001C67.0128 8.89074 66.2553 8.49116 65.2959 8.49116C64.3869 8.49116 63.4779 8.84079 63.4779 9.59001C63.4779 10.1894 63.8314 10.4891 64.6899 10.6889L66.2553 11.0385C67.3663 11.2882 67.8208 11.7877 67.8208 12.6868C67.7703 13.7856 66.8613 14.385 65.2959 14.385ZM62.8214 13.1363C63.4274 13.9355 64.2354 14.2851 65.2959 14.2851C66.1543 14.2851 67.6693 14.0853 67.6693 12.7367C67.6693 11.8876 67.2148 11.4381 66.2048 11.2383L64.6394 10.8887C64.0334 10.7388 63.3769 10.4891 63.3769 9.68991C63.3769 8.84079 64.3364 8.49116 65.3463 8.49116C66.3563 8.49116 67.1643 8.89074 67.6188 9.59001L67.7703 9.44017C67.2653 8.69095 66.4573 8.29137 65.3463 8.29137C64.3364 8.29137 63.1749 8.641 63.1749 9.73986C63.1749 10.4891 63.6294 10.8887 64.6394 11.1384L66.2048 11.488C67.1138 11.6878 67.4673 12.0874 67.4673 12.7867C67.4673 13.6358 66.6593 14.1353 65.3463 14.1353C64.3869 14.1353 63.6294 13.7357 63.0234 13.0364L62.8214 13.1363Z" fill="white"/>
<path d="M65.2946 14.4849C64.1331 14.4849 63.2746 14.0853 62.6687 13.1863L62.6182 13.0864L63.0222 12.6868L63.1231 12.7867C63.6281 13.486 64.4361 13.8855 65.2946 13.8855C65.8501 13.8855 67.2135 13.7856 67.2135 12.7367C67.2135 12.0874 66.86 11.7877 66.0521 11.5879L64.4866 11.2383C63.4261 10.9886 62.8707 10.4891 62.8707 9.63996C62.8707 8.641 63.7796 8.04163 65.2441 8.04163C66.4561 8.04163 67.365 8.49116 67.87 9.34027L67.9205 9.44017L67.466 9.83975L67.365 9.73986C66.961 9.04059 66.2036 8.69095 65.2441 8.69095C64.3856 8.69095 63.4766 8.99064 63.4766 9.73986C63.4766 10.2893 63.8301 10.589 64.6381 10.7888L66.2036 11.1384C67.3145 11.3881 67.8195 11.8876 67.8195 12.8366C67.8195 13.8356 66.9105 14.4849 65.2946 14.4849ZM67.062 13.9355C66.5571 14.2851 65.7996 14.3351 65.2946 14.3351C66.0521 14.3351 66.6581 14.1852 67.062 13.9355ZM62.9212 13.1363C63.4766 13.8855 64.2846 14.2352 65.2946 14.2352C66.1531 14.2352 67.567 14.0354 67.567 12.7367C67.567 11.9376 67.163 11.488 66.1531 11.2882L64.5876 10.9386C63.9816 10.7888 63.2746 10.539 63.2746 9.63996C63.2746 8.7409 64.2846 8.34131 65.2946 8.34131C66.3046 8.34131 67.1125 8.7409 67.567 9.39022L67.6175 9.34027C67.163 8.641 66.3551 8.24142 65.2946 8.24142C64.3351 8.24142 63.1736 8.59105 63.1736 9.59001C63.1736 10.2893 63.6281 10.6889 64.5876 10.9386L66.1531 11.2882C67.062 11.488 67.466 11.9376 67.466 12.6868C67.466 13.5859 66.6581 14.0853 65.2946 14.0853C64.3351 14.0853 63.5776 13.7357 62.9717 12.9865L62.9212 13.1363ZM66.1026 13.9355C65.7996 13.9854 65.4966 14.0354 65.2946 14.0354C65.5976 14.0354 65.8501 13.9854 66.1026 13.9355ZM62.7697 13.1863C62.8202 13.2862 62.9212 13.3361 62.9717 13.436C62.9212 13.3361 62.8707 13.2862 62.7697 13.1863ZM62.9717 12.8866L63.0222 12.9365C63.1232 13.0364 63.2241 13.1363 63.3251 13.2362C63.1736 13.1363 63.0726 13.0364 62.9717 12.8866ZM63.6786 10.3892C63.9311 10.6389 64.2846 10.7388 64.5876 10.7888L65.9006 11.0885L64.5876 10.7888C64.1836 10.7388 63.8806 10.589 63.6786 10.3892ZM65.2441 8.49116C64.2846 8.49116 63.3756 8.84079 63.3756 9.63996C63.3756 8.84079 64.2846 8.49116 65.2441 8.49116ZM67.3145 9.39022C67.365 9.44017 67.4155 9.54006 67.466 9.63996L67.4155 9.59001C67.4155 9.49012 67.365 9.44017 67.3145 9.39022ZM65.2946 8.19147C66.4056 8.19147 67.2135 8.59105 67.7185 9.39022C67.264 8.59105 66.4056 8.19147 65.2946 8.19147ZM65.2441 8.19147C64.5371 8.19147 63.9816 8.34131 63.6281 8.59105C64.0321 8.29137 64.6381 8.19147 65.2441 8.19147Z" fill="white"/>
<path d="M74.0811 13.7857C73.4751 14.1354 72.7176 14.3352 71.9602 14.3352C70.7987 14.3352 69.8897 13.8357 69.8897 12.0875V8.6411H69.0312V8.34141H69.8897V6.94287H70.2937V8.34141H73.5256V8.6411H70.2937V12.0875C70.2937 13.6359 71.1017 13.9855 72.0107 13.9855C72.6166 13.9855 73.3741 13.8357 73.9296 13.4861L74.0811 13.7857Z" fill="white"/>
<path d="M71.9609 14.385C70.4964 14.385 69.8399 13.6358 69.8399 12.0874V8.69097H68.9814V8.24144H69.8399V6.8429H70.3449V8.24144H73.5768V8.69097H70.3449V12.0375C70.3449 13.2862 70.9004 13.8856 72.0114 13.8856C72.6679 13.8856 73.3748 13.6858 73.9303 13.3861L73.9808 13.3361L74.1828 13.7357L74.1323 13.7857C73.5263 14.2352 72.7688 14.385 71.9609 14.385ZM69.1329 8.59108H69.9914V12.0874C69.9914 13.5859 70.5974 14.2352 71.9609 14.2352C72.7183 14.2352 73.4253 14.0354 74.0313 13.7357L73.9303 13.5359C73.3748 13.8356 72.6679 14.0354 72.0114 14.0354C70.7994 14.0354 70.2439 13.3861 70.2439 12.0375V8.54113H73.4758V8.34134H70.1934V6.94279H69.9409V8.34134H69.0824V8.59108H69.1329Z" fill="white"/>
<path d="M71.9609 14.385C70.4964 14.385 69.8399 13.6358 69.8399 12.0874V8.69097H68.9814V8.24144H69.8399V6.8429H70.3449V8.24144H73.5768V8.69097H70.3449V12.0375C70.3449 13.2862 70.9004 13.8856 72.0114 13.8856C72.6679 13.8856 73.3748 13.6858 73.9303 13.3861L73.9808 13.3361L74.1828 13.7357L74.1323 13.7857C73.5263 14.2352 72.7688 14.385 71.9609 14.385ZM69.1329 8.59108H69.9914V12.0874C69.9914 13.5859 70.5974 14.2352 71.9609 14.2352C72.7183 14.2352 73.4253 14.0354 74.0313 13.7357L73.9303 13.5359C73.3748 13.8356 72.6679 14.0354 72.0114 14.0354C70.7994 14.0354 70.2439 13.3861 70.2439 12.0375V8.54113H73.4758V8.34134H70.1934V6.94279H69.9409V8.34134H69.0824V8.59108H69.1329Z" fill="white"/>
<path d="M71.9596 14.4849C70.4951 14.4849 69.7882 13.7357 69.7882 12.1374V8.84079H68.9297V8.29137H69.7882V6.89282H70.4446V8.29137H73.6765V8.84079H70.4446V12.1374C70.4446 13.3361 70.9496 13.9355 72.0101 13.9355C72.6666 13.9355 73.3736 13.7357 73.8785 13.436L73.9795 13.3861L74.2825 13.8855L74.1815 13.9355C73.525 14.2851 72.7676 14.4849 71.9596 14.4849ZM73.828 13.9355C73.2726 14.1852 72.6161 14.3351 71.9596 14.3351C72.6666 14.3351 73.323 14.1852 73.828 13.9355ZM69.1822 8.54111H70.0407V12.0874C70.0407 13.5359 70.6466 14.1852 71.9596 14.1852C72.6666 14.1852 73.3735 14.0354 73.929 13.7357L73.8785 13.6358C73.3231 13.9355 72.6161 14.0853 72.0101 14.0853C70.7981 14.0853 70.1921 13.436 70.1921 12.0375V8.49116H73.424H70.1921V7.09261H70.0407V8.49116H69.1822V8.54111ZM73.929 13.486L74.03 13.6358L73.929 13.486C73.828 13.5359 73.7775 13.5858 73.6765 13.6358C73.727 13.5858 73.7775 13.5859 73.8785 13.5359L73.929 13.486ZM70.2931 8.641V12.0874V8.641H73.525V8.34131V8.641H70.2931ZM69.0307 8.641H69.8892H69.0307ZM70.2931 8.34131V6.94277V8.34131Z" fill="white"/>
<path d="M79.9892 8.34143V14.1853H79.6357V13.2863C79.1812 13.8357 78.3732 14.3352 77.2623 14.3352C76.1513 14.3352 75.0908 13.9356 75.0908 12.2374V8.34143H75.4948V12.1874C75.4948 13.7358 76.5048 13.9856 77.3632 13.9856C78.4742 13.9856 79.1812 13.4361 79.6357 12.8367V8.34143H79.9892Z" fill="white"/>
<path d="M77.2636 14.3851C75.7487 14.3851 74.9912 13.6858 74.9912 12.1873V8.24146H75.4962V12.1374C75.4962 13.3361 76.1022 13.8856 77.3141 13.8856C78.4251 13.8856 79.1321 13.2862 79.5361 12.7867V8.24146H80.0411V14.1853H79.5361V13.3861C79.2836 13.7857 78.5261 14.3851 77.2636 14.3851ZM75.1427 8.3913V12.1873C75.1427 13.5859 75.8497 14.2352 77.2636 14.2352C78.6271 14.2352 79.3846 13.436 79.5866 13.1863L79.6876 13.0365V14.0854H79.9401V8.3913H79.6876V12.8367C79.2836 13.3861 78.5261 13.9855 77.3646 13.9855C76.1022 13.9855 75.4457 13.3361 75.4457 12.0874V8.34135H75.1427V8.3913Z" fill="white"/>
<path d="M77.2636 14.3851C75.7487 14.3851 74.9912 13.6858 74.9912 12.1873V8.24146H75.4962V12.1374C75.4962 13.3361 76.1022 13.8856 77.3141 13.8856C78.4251 13.8856 79.1321 13.2862 79.5361 12.7867V8.24146H80.0411V14.1853H79.5361V13.3861C79.2836 13.7857 78.5261 14.3851 77.2636 14.3851ZM75.1427 8.3913V12.1873C75.1427 13.5859 75.8497 14.2352 77.2636 14.2352C78.6271 14.2352 79.3846 13.436 79.5866 13.1863L79.6876 13.0365V14.0854H79.9401V8.3913H79.6876V12.8367C79.2836 13.3861 78.5261 13.9855 77.3646 13.9855C76.1022 13.9855 75.4457 13.3361 75.4457 12.0874V8.34135H75.1427V8.3913Z" fill="white"/>
<path d="M77.2624 14.485C75.6969 14.485 74.9395 13.7357 74.9395 12.2373V8.24146H75.5959V12.1873C75.5959 13.3361 76.1514 13.8856 77.3634 13.8856C78.4238 13.8856 79.1308 13.3361 79.5348 12.8367V8.24146H80.1913V14.3351H79.5853V13.6358C79.1308 13.9855 78.4238 14.485 77.2624 14.485ZM75.0909 12.2373C75.0909 13.6858 75.7979 14.3351 77.2624 14.3351C75.7979 14.3351 75.0909 13.6358 75.0909 12.2373ZM79.6358 13.2862C79.4338 13.5359 78.6763 14.3351 77.2624 14.3351C78.4743 14.3351 79.1813 13.7357 79.5348 13.3861L79.6358 13.2862ZM75.1919 8.49119V12.2373C75.1919 13.5859 75.8484 14.2352 77.2624 14.2352C78.6258 14.2352 79.3328 13.436 79.5348 13.1863L79.7368 12.8866V14.0354H79.8378V8.49119H79.6863V12.9366L79.6358 12.9865C79.2318 13.5359 78.4743 14.1853 77.2624 14.1853C75.9494 14.1853 75.2424 13.5359 75.2424 12.2373V8.49119H75.1919ZM79.6358 14.1853H79.9893V8.34135V14.1853H79.6358ZM79.3833 13.1364C78.9793 13.5859 78.2723 13.9855 77.3634 13.9855C78.2723 13.9855 78.9288 13.5859 79.3833 13.1364ZM75.4444 8.34135V12.1873V8.34135Z" fill="white"/>
<path d="M87.2612 4.89502V14.1853H86.9077V13.0865C86.4027 14.0355 85.4432 14.3851 84.4838 14.3851C83.0698 14.3851 81.7568 13.7858 81.7568 11.8378V10.7889C81.7568 8.84091 83.0698 8.24154 84.4838 8.24154C85.4432 8.24154 86.4027 8.54122 86.8572 9.44029V4.94497H87.2612V4.89502ZM86.8572 12.4871V10.0397C86.5542 8.89086 85.3927 8.49128 84.5343 8.49128C83.4233 8.49128 82.1608 8.99076 82.1608 10.7389V11.7878C82.1608 13.536 83.4233 13.9856 84.5343 13.9856C85.3927 14.0355 86.4532 13.6359 86.8572 12.4871Z" fill="white"/>
<path d="M84.4835 14.3851C83.4735 14.3851 81.7061 14.0354 81.7061 11.7878V10.7389C81.7061 8.49119 83.423 8.14156 84.4835 8.14156C85.0895 8.14156 86.2004 8.2914 86.8064 9.19047V4.79504H87.3114V14.2352H86.8569V13.2862C86.2004 14.2352 85.0895 14.3851 84.4835 14.3851ZM84.4835 8.24145C83.4735 8.24145 81.8071 8.54114 81.8071 10.7389V11.7878C81.8071 13.9355 83.4735 14.2852 84.433 14.2852C85.0895 14.2852 86.2509 14.1353 86.8064 13.0365L86.9074 12.8367V14.1353H87.1094V4.94489H86.8569V9.64L86.7559 9.39026C86.3014 8.3913 85.14 8.24145 84.4835 8.24145ZM84.534 14.0854C83.7765 14.0854 82.11 13.8856 82.11 11.7878V10.7389C82.11 8.69099 83.827 8.44125 84.534 8.44125C85.4934 8.44125 86.6044 8.84083 86.9074 9.98963V12.4371C86.4024 13.9855 84.938 14.0854 84.534 14.0854ZM84.534 8.59109C83.827 8.59109 82.211 8.79088 82.211 10.7389V11.7878C82.211 13.7357 83.827 13.9355 84.534 13.9355C84.938 13.9355 86.3519 13.8356 86.8064 12.4371V10.0396C86.5034 8.94073 85.4429 8.59109 84.534 8.59109Z" fill="white"/>
<path d="M84.4835 14.3851C83.4735 14.3851 81.7061 14.0354 81.7061 11.7878V10.7389C81.7061 8.49119 83.423 8.14156 84.4835 8.14156C85.0895 8.14156 86.2004 8.2914 86.8064 9.19047V4.79504H87.3114V14.2352H86.8569V13.2862C86.2004 14.2352 85.0895 14.3851 84.4835 14.3851ZM84.4835 8.24145C83.4735 8.24145 81.8071 8.54114 81.8071 10.7389V11.7878C81.8071 13.9355 83.4735 14.2852 84.433 14.2852C85.0895 14.2852 86.2509 14.1353 86.8064 13.0365L86.9074 12.8367V14.1353H87.1094V4.94489H86.8569V9.64L86.7559 9.39026C86.3014 8.3913 85.14 8.24145 84.4835 8.24145ZM84.534 14.0854C83.7765 14.0854 82.11 13.8856 82.11 11.7878V10.7389C82.11 8.69099 83.827 8.44125 84.534 8.44125C85.4934 8.44125 86.6044 8.84083 86.9074 9.98963V12.4371C86.4024 13.9855 84.938 14.0854 84.534 14.0854ZM84.534 8.59109C83.827 8.59109 82.211 8.79088 82.211 10.7389V11.7878C82.211 13.7357 83.827 13.9355 84.534 13.9355C84.938 13.9355 86.3519 13.8356 86.8064 12.4371V10.0396C86.5034 8.94073 85.4429 8.59109 84.534 8.59109Z" fill="white"/>
<path d="M84.4832 14.485C83.4227 14.485 81.6553 14.1353 81.6553 11.8377V10.7888C81.6553 8.44127 83.4227 8.09163 84.4832 8.09163C85.0892 8.09163 86.0991 8.19153 86.7556 8.99069V4.74512H87.4121V14.2852H86.8061V13.486C86.0991 14.3351 85.0387 14.485 84.4832 14.485ZM81.7563 11.7878C81.7563 13.9855 83.4732 14.3351 84.4832 14.3351C83.4732 14.3351 81.7563 14.0354 81.7563 11.7878ZM84.4832 8.29142C83.5237 8.29142 81.9078 8.59111 81.9078 10.7389V11.7878C81.9078 13.8856 83.5237 14.1853 84.4832 14.1853C85.0892 14.1853 86.2506 14.0354 86.8061 12.9865L87.0586 12.537V14.0354H87.1596V4.99486H87.0081V9.88976L86.9071 9.64002C86.9576 9.73991 87.0081 9.83981 87.0081 9.93971V12.3872C86.5031 13.8856 84.9882 14.0354 84.5337 14.0354C83.7762 14.0354 82.0593 13.7857 82.0593 11.6879V10.639C82.0593 8.49121 83.8267 8.29142 84.5842 8.29142C85.3922 8.29142 86.3516 8.59111 86.8566 9.39028L86.8061 9.34033C86.2506 8.44127 85.0892 8.29142 84.4832 8.29142ZM86.9071 14.1853H87.2606V4.89496V14.1853H86.9071ZM82.1603 11.7878C82.1603 13.7857 83.8267 13.9855 84.5337 13.9855C83.7762 14.0354 82.1603 13.7857 82.1603 11.7878ZM86.8061 12.537C86.3011 13.8856 84.9377 13.9855 84.4832 13.9855C84.9377 14.0354 86.3011 13.8856 86.8061 12.537ZM84.5337 8.64106C83.8772 8.64106 82.2613 8.84085 82.2613 10.7389V11.7878C82.2613 13.6858 83.8267 13.8856 84.4832 13.8856C84.8872 13.8856 86.2506 13.7857 86.7051 12.4371V10.0396C86.4526 8.99069 85.3922 8.64106 84.5337 8.64106ZM86.9071 13.0365C86.7556 13.2862 86.6041 13.486 86.4526 13.6359C86.6041 13.536 86.7051 13.3861 86.8061 13.2363L86.9071 13.0365ZM84.5337 8.49121C85.4427 8.49121 86.5536 8.8908 86.8566 9.98965C86.5536 8.8908 85.4427 8.49121 84.5337 8.49121ZM86.7556 9.19049C86.8061 9.24043 86.8566 9.34033 86.8566 9.39028L86.7556 9.19049ZM86.5031 8.8908C86.6041 8.99069 86.6546 9.09059 86.7556 9.19049C86.6546 9.09059 86.6041 8.99069 86.5031 8.8908Z" fill="white"/>
<path d="M89.2314 6.19363C89.2314 5.99384 89.3829 5.84399 89.5849 5.84399C89.7869 5.84399 89.9384 5.99384 89.9384 6.19363C89.9384 6.39342 89.7869 6.54327 89.5849 6.54327C89.3829 6.54327 89.2314 6.44337 89.2314 6.19363ZM89.4334 8.34139H89.8374V14.1853H89.4334V8.34139Z" fill="white"/>
<path d="M89.8877 14.2353H89.3827V8.29144H89.8877V14.2353ZM89.4837 14.1354H89.7362V8.39134H89.4837V14.1354ZM89.5847 6.64316C89.3322 6.64316 89.1807 6.49332 89.1807 6.24358C89.1807 5.99384 89.3322 5.84399 89.5847 5.84399C89.8372 5.84399 89.9887 5.99384 89.9887 6.24358C90.0392 6.44337 89.8372 6.64316 89.5847 6.64316ZM89.5847 5.94389C89.3827 5.94389 89.2817 6.04379 89.2817 6.24358C89.2817 6.39342 89.3827 6.54327 89.5847 6.54327C89.7867 6.54327 89.8877 6.44337 89.8877 6.24358C89.8877 6.04379 89.7867 5.94389 89.5847 5.94389Z" fill="white"/>
<path d="M89.8877 14.2353H89.3827V8.29144H89.8877V14.2353ZM89.4837 14.1354H89.7362V8.39134H89.4837V14.1354ZM89.5847 6.64316C89.3322 6.64316 89.1807 6.49332 89.1807 6.24358C89.1807 5.99384 89.3322 5.84399 89.5847 5.84399C89.8372 5.84399 89.9887 5.99384 89.9887 6.24358C90.0392 6.44337 89.8372 6.64316 89.5847 6.64316ZM89.5847 5.94389C89.3827 5.94389 89.2817 6.04379 89.2817 6.24358C89.2817 6.39342 89.3827 6.54327 89.5847 6.54327C89.7867 6.54327 89.8877 6.44337 89.8877 6.24358C89.8877 6.04379 89.7867 5.94389 89.5847 5.94389Z" fill="white"/>
<path d="M89.9376 14.2852H89.2811V8.24152H89.9376V14.2852ZM89.4326 14.1853H89.8366V8.34141V14.1853H89.4326ZM89.5336 14.0355H89.6851V8.49126H89.5336V14.0355ZM89.5841 6.69313C89.2811 6.69313 89.0791 6.49334 89.0791 6.2436C89.0791 5.94391 89.2811 5.79407 89.5841 5.79407C89.8871 5.79407 90.0891 5.99386 90.0891 6.2436C90.0891 6.49334 89.8871 6.69313 89.5841 6.69313ZM89.2306 6.19365C89.2306 6.39344 89.3821 6.54329 89.5841 6.54329C89.7861 6.54329 89.9376 6.39344 89.9376 6.19365C89.9376 6.39344 89.7861 6.54329 89.5841 6.54329C89.3821 6.54329 89.2306 6.44339 89.2306 6.19365ZM89.5841 5.99386C89.4326 5.99386 89.3316 6.04381 89.3316 6.19365C89.3316 6.34349 89.4326 6.39344 89.5841 6.39344C89.7356 6.39344 89.8366 6.29355 89.8366 6.19365C89.8366 6.04381 89.7356 5.99386 89.5841 5.99386Z" fill="white"/>
<path d="M91.6045 11.7878V10.7389C91.6045 8.7909 92.9175 8.19153 94.3819 8.19153C95.8464 8.19153 97.1593 8.7909 97.1593 10.7389V11.7878C97.1593 13.7358 95.8464 14.3351 94.3819 14.3351C92.9175 14.3351 91.6045 13.7358 91.6045 11.7878ZM96.7553 11.7878V10.7389C96.7553 8.9907 95.4929 8.49122 94.3819 8.49122C93.2709 8.49122 92.0085 8.9907 92.0085 10.7389V11.7878C92.0085 13.536 93.2709 13.9855 94.3819 13.9855C95.4424 14.0354 96.7553 13.536 96.7553 11.7878Z" fill="white"/>
<path d="M94.3816 14.385C93.3211 14.385 91.5537 14.0354 91.5537 11.7877V10.7388C91.5537 8.44119 93.3211 8.09155 94.3816 8.09155C95.4421 8.09155 97.2095 8.44119 97.2095 10.7388V11.7877C97.2095 14.0853 95.4421 14.385 94.3816 14.385ZM94.3816 8.2414C93.3716 8.2414 91.7052 8.54108 91.7052 10.7388V11.7877C91.7052 13.9355 93.3716 14.2851 94.3816 14.2851C95.5936 14.2851 97.058 13.8356 97.058 11.7877V10.7388C97.058 8.69093 95.5936 8.2414 94.3816 8.2414ZM94.3816 14.0853C93.6241 14.0853 91.9577 13.8855 91.9577 11.7877V10.7388C91.9577 8.59103 93.8261 8.44119 94.3816 8.44119C94.9371 8.44119 96.8055 8.59103 96.8055 10.7388V11.7877C96.8055 13.8356 95.0886 14.0853 94.3816 14.0853ZM94.3816 8.59103C93.6746 8.59103 92.0587 8.79082 92.0587 10.7388V11.7877C92.0587 13.7357 93.6746 13.9355 94.3816 13.9355C95.0886 13.9355 96.7045 13.7357 96.7045 11.7877V10.7388C96.654 8.79082 95.0381 8.59103 94.3816 8.59103Z" fill="white"/>
<path d="M94.3816 14.385C93.3211 14.385 91.5537 14.0354 91.5537 11.7877V10.7388C91.5537 8.44119 93.3211 8.09155 94.3816 8.09155C95.4421 8.09155 97.2095 8.44119 97.2095 10.7388V11.7877C97.2095 14.0853 95.4421 14.385 94.3816 14.385ZM94.3816 8.2414C93.3716 8.2414 91.7052 8.54108 91.7052 10.7388V11.7877C91.7052 13.9355 93.3716 14.2851 94.3816 14.2851C95.5936 14.2851 97.058 13.8356 97.058 11.7877V10.7388C97.058 8.69093 95.5936 8.2414 94.3816 8.2414ZM94.3816 14.0853C93.6241 14.0853 91.9577 13.8855 91.9577 11.7877V10.7388C91.9577 8.59103 93.8261 8.44119 94.3816 8.44119C94.9371 8.44119 96.8055 8.59103 96.8055 10.7388V11.7877C96.8055 13.8356 95.0886 14.0853 94.3816 14.0853ZM94.3816 8.59103C93.6746 8.59103 92.0587 8.79082 92.0587 10.7388V11.7877C92.0587 13.7357 93.6746 13.9355 94.3816 13.9355C95.0886 13.9355 96.7045 13.7357 96.7045 11.7877V10.7388C96.654 8.79082 95.0381 8.59103 94.3816 8.59103Z" fill="white"/>
<path d="M94.3813 14.4849C93.3209 14.4849 91.5029 14.1353 91.5029 11.7877V10.7388C91.5029 8.39126 93.3209 8.04163 94.3813 8.04163C95.4418 8.04163 97.2597 8.39126 97.2597 10.7388V11.7877C97.2597 14.1353 95.4418 14.4849 94.3813 14.4849ZM91.6039 11.7877C91.6039 13.9854 93.3209 14.3351 94.3813 14.3351C93.3209 14.3351 91.6039 14.0354 91.6039 11.7877ZM94.3813 8.29137C93.4219 8.29137 91.7554 8.59105 91.7554 10.7388V11.7877C91.7554 13.8855 93.4219 14.2352 94.3813 14.2352C95.5933 14.2352 97.0073 13.8356 97.0073 11.7877V10.7388C97.0073 8.7409 95.5428 8.29137 94.3813 8.29137ZM97.1083 10.7388V11.7877V10.7388ZM94.3813 14.1353C93.6239 14.1353 91.9069 13.8855 91.9069 11.7877V10.7388C91.9069 8.54111 93.8259 8.39126 94.3813 8.39126C94.9368 8.39126 96.8558 8.54111 96.8558 10.7388V11.7877C96.8558 13.9355 95.1388 14.1353 94.3813 14.1353ZM92.0079 11.7877C92.0079 13.7856 93.6744 13.9854 94.3813 13.9854C95.0883 13.9854 96.7548 13.7856 96.7548 11.7877V10.7388V11.7877C96.7548 13.7856 95.0883 13.9854 94.3813 13.9854C93.6744 13.9854 92.0079 13.7856 92.0079 11.7877ZM94.3813 8.641C93.7249 8.641 92.1594 8.84079 92.1594 10.7388V11.7877C92.1594 13.6857 93.7249 13.8855 94.3813 13.8855C95.0378 13.8855 96.6033 13.6857 96.6033 11.7877V10.7388C96.6033 8.84079 95.0378 8.641 94.3813 8.641Z" fill="white"/>
<path d="M3.28186 14.7345C8.83669 3.09664 22.8753 -1.9481 34.6414 3.54617C37.8228 4.99466 40.4992 7.09248 42.6202 9.58988C40.3982 6.4931 37.3178 3.94576 33.5809 2.19758C21.8148 -3.24675 7.77622 1.74804 2.22139 13.4359C-1.81849 21.977 -0.202536 31.6669 5.60479 38.4099C0.706437 31.7668 -0.505527 22.7262 3.28186 14.7345Z" fill="white"/>
<path d="M42.6209 9.59009C47.5192 16.2332 48.7312 25.2738 44.9438 33.2654C39.389 44.9033 25.3504 49.8981 13.5842 44.4538C10.4028 43.0053 7.72641 40.9075 5.60547 38.4101C7.8779 41.4569 10.9078 44.0542 14.6447 45.7524C26.4613 51.2467 40.4999 46.202 46.0043 34.5141C50.0441 26.023 48.4282 16.3331 42.6209 9.59009Z" fill="white"/>
<path d="M45.5502 6.29358L22.4219 24.2748L51.4585 47.0511L25.1993 24.4247L45.5502 6.29358Z" fill="white"/>
<path d="M51.307 47.2509L22.0684 24.2748L45.4492 6.14368L45.7521 6.54326L25.5528 24.4746L51.61 46.9012L51.307 47.2509ZM22.8763 24.2748L42.9242 40.0084L24.7953 24.4246L39.7428 11.1884L22.8763 24.2748Z" fill="white"/>
</g>
<defs>
<clipPath id="clip0">
<rect width="233" height="48" fill="white"/>
</clipPath>
</defs>
</svg>
